<?xml version="1.0" standalone="no"?><!-- Generator: Gravit.io --><svg xmlns="http://www.w3.org/2000/svg" xmlns:xlink="http://www.w3.org/1999/xlink" style="isolation:isolate" viewBox="0 0 832.5 677.845" width="832.5" height="677.845"><defs><clipPath id="_clipPath_EvsywSCmucsCWB7y7KvwH3eY32RYsT2c"><rect width="832.5" height="677.845"/></clipPath></defs><g clip-path="url(#_clipPath_EvsywSCmucsCWB7y7KvwH3eY32RYsT2c)"><ellipse vector-effect="non-scaling-stroke" cx="667" cy="643.84461" rx="151" ry="34" fill="rgb(0,98,255)"/><ellipse vector-effect="non-scaling-stroke" cx="681" cy="633.84461" rx="151" ry="34" fill="none" stroke-width="1" stroke="rgb(63,61,86)" stroke-linejoin="miter" stroke-linecap="butt" stroke-miterlimit="10"/><circle vector-effect="non-scaling-stroke" cx="436.5" cy="304.34461" r="30" fill="rgb(0,98,255)"/><circle vector-effect="non-scaling-stroke" cx="557.5" cy="304.34461" r="30" fill="rgb(0,98,255)"/><circle vector-effect="non-scaling-stroke" cx="678.5" cy="304.34461" r="30" fill="rgb(108,99,255)"/><circle vector-effect="non-scaling-stroke" cx="12.500000000000002" cy="19.344610000000003" r="3" fill="rgb(248,107,117)"/><circle vector-effect="non-scaling-stroke" cx="21.5" cy="19.344610000000003" r="3" fill="rgb(250,211,117)"/><circle vector-effect="non-scaling-stroke" cx="30.5" cy="19.344610000000003" r="3" fill="rgb(139,204,85)"/><rect x="67" y="66.845" width="206" height="64" transform="matrix(1,0,0,1,0,0)" fill="rgb(0,98,255)"/><rect x="0.5" y="10.345" width="364" height="216" transform="matrix(1,0,0,1,0,0)" fill="none" vector-effect="non-scaling-stroke" stroke-width="1" stroke="rgb(63,61,86)" stroke-linejoin="miter" stroke-linecap="butt" stroke-miterlimit="2"/><line x1="0.5" y1="26.703" x2="364.5" y2="26.703"/><rect x="0.5" y="26.703" width="364" height="1.5" transform="matrix(1,0,0,1,0,0)" fill="rgb(63,61,86)"/><rect x="380.5" y="227.116" width="364" height="1.5" transform="matrix(1,0,0,1,0,0)" fill="rgb(63,61,86)"/><rect x="84.5" y="401.469" width="296" height="1.5" transform="matrix(1,0,0,1,0,0)" fill="rgb(63,61,86)"/><circle vector-effect="non-scaling-stroke" cx="13.5" cy="18.34461" r="3" fill="none" stroke-width="1" stroke="rgb(63,61,86)" stroke-linejoin="miter" stroke-linecap="butt" stroke-miterlimit="10"/><circle vector-effect="non-scaling-stroke" cx="22.5" cy="18.34461" r="3" fill="none" stroke-width="1" stroke="rgb(63,61,86)" stroke-linejoin="miter" stroke-linecap="butt" stroke-miterlimit="10"/><circle vector-effect="non-scaling-stroke" cx="31.5" cy="18.34461" r="3" fill="none" stroke-width="1" stroke="rgb(63,61,86)" stroke-linejoin="miter" stroke-linecap="butt" stroke-miterlimit="10"/><rect x="79.5" y="54.345" width="206" height="64" transform="matrix(1,0,0,1,0,0)" fill="none" vector-effect="non-scaling-stroke" stroke-width="1" stroke="rgb(63,61,86)" stroke-linejoin="miter" stroke-linecap="butt" stroke-miterlimit="2"/><rect x="41" y="158.845" width="276" height="8.276" transform="matrix(1,0,0,1,0,0)" fill="rgb(220,220,220)"/><rect x="41" y="178.707" width="276" height="8.276" transform="matrix(1,0,0,1,0,0)" fill="rgb(220,220,220)"/><rect x="41" y="198.569" width="276" height="8.276" transform="matrix(1,0,0,1,0,0)" fill="rgb(220,220,220)"/><rect x="44" y="154.845" width="276" height="8.276" transform="matrix(1,0,0,1,0,0)" fill="none" vector-effect="non-scaling-stroke" stroke-width="1" stroke="rgb(63,61,86)" stroke-linejoin="miter" stroke-linecap="butt" stroke-miterlimit="2"/><rect x="44" y="174.707" width="276" height="8.276" transform="matrix(1,0,0,1,0,0)" fill="none" vector-effect="non-scaling-stroke" stroke-width="1" stroke="rgb(63,61,86)" stroke-linejoin="miter" stroke-linecap="butt" stroke-miterlimit="2"/><rect x="44" y="194.569" width="276" height="8.276" transform="matrix(1,0,0,1,0,0)" fill="none" vector-effect="non-scaling-stroke" stroke-width="1" stroke="rgb(63,61,86)" stroke-linejoin="miter" stroke-linecap="butt" stroke-miterlimit="2"/><circle vector-effect="non-scaling-stroke" cx="96.5" cy="393.34461000000005" r="3" fill="rgb(248,107,117)"/><circle vector-effect="non-scaling-stroke" cx="105.5" cy="393.34461000000005" r="3" fill="rgb(250,211,117)"/><circle vector-effect="non-scaling-stroke" cx="114.5" cy="393.34461000000005" r="3" fill="rgb(139,204,85)"/><rect x="151" y="440.845" width="206" height="64" transform="matrix(1,0,0,1,0,0)" fill="rgb(0,98,255)"/><mask id="_mask_Laj31yrkRL37CXjW2rSkuwHh0rihbvfG" x="-200%" y="-200%" width="400%" height="400%"><rect x="-200%" y="-200%" width="400%" height="400%" style="fill:white;"/><path d=" M 448.5 428.345 L 448.5 600.345 L 84.5 600.345 L 84.5 384.345 L 380.5 384.345" fill="black" stroke="none"/></mask><path d=" M 448.5 428.345 L 448.5 600.345 L 84.5 600.345 L 84.5 384.345 L 380.5 384.345" fill="none" mask="url(#_mask_Laj31yrkRL37CXjW2rSkuwHh0rihbvfG)" vector-effect="non-scaling-stroke" stroke-width="2" stroke="rgb(63,61,86)" stroke-linejoin="miter" stroke-linecap="butt" stroke-miterlimit="10"/><circle vector-effect="non-scaling-stroke" cx="97.5" cy="392.34461" r="3" fill="none" stroke-width="1" stroke="rgb(63,61,86)" stroke-linejoin="miter" stroke-linecap="butt" stroke-miterlimit="10"/><circle vector-effect="non-scaling-stroke" cx="106.5" cy="392.34461" r="3" fill="none" stroke-width="1" stroke="rgb(63,61,86)" stroke-linejoin="miter" stroke-linecap="butt" stroke-miterlimit="10"/><circle vector-effect="non-scaling-stroke" cx="115.5" cy="392.34461" r="3" fill="none" stroke-width="1" stroke="rgb(63,61,86)" stroke-linejoin="miter" stroke-linecap="butt" stroke-miterlimit="10"/><rect x="163.5" y="428.345" width="206" height="64" transform="matrix(1,0,0,1,0,0)" fill="none" vector-effect="non-scaling-stroke" stroke-width="1" stroke="rgb(63,61,86)" stroke-linejoin="miter" stroke-linecap="butt" stroke-miterlimit="2"/><circle vector-effect="non-scaling-stroke" cx="392.50000000000006" cy="220.34461000000002" r="3" fill="rgb(248,107,117)"/><circle vector-effect="non-scaling-stroke" cx="401.50000000000006" cy="220.34461000000002" r="3" fill="rgb(250,211,117)"/><circle vector-effect="non-scaling-stroke" cx="410.50000000000017" cy="220.34461000000002" r="3" fill="rgb(139,204,85)"/><rect x="380.5" y="211.345" width="364" height="216" transform="matrix(1,0,0,1,0,0)" fill="none" vector-effect="non-scaling-stroke" stroke-width="1" stroke="rgb(63,61,86)" stroke-linejoin="miter" stroke-linecap="butt" stroke-miterlimit="2"/><circle vector-effect="non-scaling-stroke" cx="393.5" cy="219.34461" r="3" fill="none" stroke-width="1" stroke="rgb(63,61,86)" stroke-linejoin="miter" stroke-linecap="butt" stroke-miterlimit="10"/><circle vector-effect="non-scaling-stroke" cx="402.5" cy="219.34461" r="3" fill="none" stroke-width="1" stroke="rgb(63,61,86)" stroke-linejoin="miter" stroke-linecap="butt" stroke-miterlimit="10"/><circle vector-effect="non-scaling-stroke" cx="411.5" cy="219.34461" r="3" fill="none" stroke-width="1" stroke="rgb(63,61,86)" stroke-linejoin="miter" stroke-linecap="butt" stroke-miterlimit="10"/><circle vector-effect="non-scaling-stroke" cx="441.5" cy="299.34461" r="30" fill="none" stroke-width="1" stroke="rgb(63,61,86)" stroke-linejoin="miter" stroke-linecap="butt" stroke-miterlimit="10"/><circle vector-effect="non-scaling-stroke" cx="562.5" cy="299.34461" r="30" fill="none" stroke-width="1" stroke="rgb(63,61,86)" stroke-linejoin="miter" stroke-linecap="butt" stroke-miterlimit="10"/><circle vector-effect="non-scaling-stroke" cx="683.5" cy="299.34461" r="30" fill="none" stroke-width="1" stroke="rgb(63,61,86)" stroke-linejoin="miter" stroke-linecap="butt" stroke-miterlimit="10"/><rect x="396" y="354.845" width="82" height="8" transform="matrix(1,0,0,1,0,0)" fill="rgb(220,220,220)"/><rect x="518" y="354.845" width="82" height="8" transform="matrix(1,0,0,1,0,0)" fill="rgb(220,220,220)"/><rect x="640" y="354.845" width="82" height="8" transform="matrix(1,0,0,1,0,0)" fill="rgb(242,242,242)"/><rect x="400" y="351.845" width="82" height="8" transform="matrix(1,0,0,1,0,0)" fill="none" vector-effect="non-scaling-stroke" stroke-width="1" stroke="rgb(63,61,86)" stroke-linejoin="miter" stroke-linecap="butt" stroke-miterlimit="2"/><rect x="522" y="351.845" width="82" height="8" transform="matrix(1,0,0,1,0,0)" fill="none" vector-effect="non-scaling-stroke" stroke-width="1" stroke="rgb(63,61,86)" stroke-linejoin="miter" stroke-linecap="butt" stroke-miterlimit="2"/><rect x="644" y="351.845" width="82" height="8" transform="matrix(1,0,0,1,0,0)" fill="none" vector-effect="non-scaling-stroke" stroke-width="1" stroke="rgb(63,61,86)" stroke-linejoin="miter" stroke-linecap="butt" stroke-miterlimit="2"/><rect x="98" y="529.845" width="63" height="54" transform="matrix(1,0,0,1,0,0)" fill="rgb(220,220,220)"/><rect x="214.5" y="530.345" width="63" height="54" transform="matrix(1,0,0,1,0,0)" fill="rgb(220,220,220)"/><rect x="331" y="530.845" width="63" height="54" transform="matrix(1,0,0,1,0,0)" fill="rgb(220,220,220)"/><rect x="107" y="519.845" width="63" height="54" transform="matrix(1,0,0,1,0,0)" fill="none" vector-effect="non-scaling-stroke" stroke-width="1" stroke="rgb(63,61,86)" stroke-linejoin="miter" stroke-linecap="butt" stroke-miterlimit="2"/><rect x="223.5" y="520.345" width="63" height="54" transform="matrix(1,0,0,1,0,0)" fill="none" vector-effect="non-scaling-stroke" stroke-width="1" stroke="rgb(63,61,86)" stroke-linejoin="miter" stroke-linecap="butt" stroke-miterlimit="2"/><rect x="340" y="520.845" width="63" height="54" transform="matrix(1,0,0,1,0,0)" fill="none" vector-effect="non-scaling-stroke" stroke-width="1" stroke="rgb(63,61,86)" stroke-linejoin="miter" stroke-linecap="butt" stroke-miterlimit="2"/><path d=" M 600.786 204.492 L 572.726 220.039 L 602.65 209.483 L 600.786 204.492 L 600.786 204.492 Z " fill="rgb(121,117,140)"/><path d=" M 601.114 207.207 C 598.425 198.927 599.578 191.122 603.688 189.787 C 607.797 188.452 613.317 194.09 616.006 202.37 C 618.695 210.649 617.542 218.454 613.433 219.789 C 609.323 221.124 603.804 215.486 601.114 207.207 Z " fill="rgb(63,61,86)"/><path d=" M 627.347 194.586 C 625.449 188.74 626.424 183.177 629.524 182.17 C 632.625 181.163 636.683 185.091 638.582 190.937 C 640.481 196.783 639.505 202.346 636.405 203.354 C 633.305 204.361 629.246 200.432 627.347 194.586 Z " fill="rgb(63,61,86)"/><path d=" M 610.365 195.681 L 628.977 188.961 L 632.933 199.919 L 614.919 212.087 L 610.365 195.681 L 610.365 195.681 Z " fill="rgb(63,61,86)"/><path d=" M 608.585 235.969 L 613.585 224.969 C 613.585 224.969 625.585 192.969 614.585 198.969 C 614.585 198.969 599.585 220.969 599.585 220.969 L 596.585 230.969 L 608.585 235.969 Z " fill="rgb(160,97,106)"/><path d=" M 745.585 401.969 C 745.585 401.969 728.585 434.969 723.585 435.969 C 723.585 435.969 718.585 405.969 718.585 405.969 C 718.585 405.969 728.585 396.969 732.585 397.969 C 736.585 398.969 745.585 401.969 745.585 401.969 Z " fill="rgb(160,97,106)"/><path d=" M 720.585 609.969 C 720.585 609.969 729.585 614.969 725.585 625.969 C 725.585 625.969 719.585 633.969 717.585 642.969 C 717.585 642.969 697.585 650.969 696.585 646.969 C 696.585 646.969 693.585 626.969 698.585 620.969 C 703.585 614.969 720.585 609.969 720.585 609.969 Z " fill="rgb(85,83,110)"/><path d=" M 631.585 609.969 C 631.585 609.969 622.585 614.969 626.585 625.969 C 626.585 625.969 632.585 633.969 634.585 642.969 C 634.585 642.969 654.585 650.969 655.585 646.969 C 655.585 646.969 658.585 626.969 653.585 620.969 C 648.585 614.969 631.585 609.969 631.585 609.969 Z " fill="rgb(85,83,110)"/><path d=" M 715.585 409.969 C 715.585 409.969 723.585 414.969 725.585 445.969 C 725.585 445.969 724.585 511.969 723.585 519.969 C 723.585 519.969 724.585 539.969 726.585 545.969 C 726.585 545.969 721.585 597.969 721.585 597.969 C 724.573 604.3 724.573 611.637 721.585 617.969 C 716.585 628.969 701.585 639.969 697.585 628.969 C 697.375 625.131 696.353 621.381 694.585 617.969 C 691.585 611.969 696.585 587.969 696.585 587.969 C 696.585 587.969 692.585 549.969 693.585 539.969 C 694.585 529.969 681.585 470.969 679.585 460.969 C 677.585 450.969 678.585 442.969 677.585 445.969 C 676.585 448.969 658.585 531.969 658.585 531.969 C 658.585 531.969 660.585 584.969 659.585 591.969 C 658.585 598.969 663.585 612.969 660.585 617.969 C 657.585 622.969 651.585 640.969 640.585 629.969 C 629.585 618.969 631.585 614.969 630.585 609.969 C 629.585 604.969 630.585 598.969 630.585 590.969 C 630.585 582.969 622.585 537.969 626.585 530.969 C 630.585 523.969 628.585 514.969 627.585 498.969 C 626.585 482.969 625.585 405.969 635.585 391.969 C 645.585 377.969 715.585 409.969 715.585 409.969 Z " fill="rgb(63,61,86)"/><circle vector-effect="non-scaling-stroke" cx="691.08488" cy="198.46856" r="24" fill="rgb(160,97,106)"/><path d=" M 706.585 207.969 C 706.585 207.969 705.585 243.969 710.585 249.969 C 710.585 249.969 667.585 244.969 667.585 244.969 C 667.585 244.969 678.585 221.969 671.585 206.969 C 664.585 191.969 706.585 207.969 706.585 207.969 Z " fill="rgb(160,97,106)"/><path d=" M 715.585 245.969 C 715.585 245.969 713.585 237.969 701.585 235.969 C 701.585 235.969 675.394 231.969 670.989 235.969 C 670.989 235.969 664.585 244.969 661.585 244.969 L 647.585 244.969 L 625.585 283.969 C 625.585 283.969 636.585 296.969 633.585 320.969 C 633.585 320.969 625.585 388.969 625.585 388.969 C 633.602 399.641 640.631 411.022 646.585 422.969 C 656.585 442.969 725.585 440.969 721.585 405.969 C 721.585 405.969 716.585 396.969 718.585 388.969 C 720.585 380.969 726.585 326.969 726.585 326.969 L 749.585 265.969 C 749.585 265.969 717.585 249.969 715.585 245.969 Z " fill="rgb(85,83,110)"/><path d=" M 742.585 264.969 L 749.585 264.969 C 749.585 264.969 753.585 287.969 752.585 301.969 C 752.585 301.969 751.585 348.969 751.585 348.969 C 751.585 348.969 755.585 356.969 754.585 363.969 C 754.585 363.969 751.585 389.969 751.585 389.969 C 751.585 389.969 750.585 416.969 731.585 402.969 C 731.585 402.969 725.585 399.969 728.585 386.969 C 731.585 373.969 726.585 359.969 726.585 359.969 C 726.585 359.969 729.585 350.969 728.585 344.969 C 727.585 338.969 723.585 319.969 723.585 319.969 L 742.585 264.969 Z " fill="rgb(85,83,110)"/><path d=" M 652.585 247.969 L 647.585 244.969 C 647.585 244.969 640.585 241.969 630.585 244.969 C 630.585 244.969 615.585 246.969 611.585 245.969 C 611.585 245.969 610.585 234.969 610.585 234.969 C 610.585 234.969 602.585 220.969 594.585 228.969 C 594.585 228.969 586.585 252.969 586.585 252.969 C 586.585 252.969 581.585 262.969 599.585 268.969 C 599.585 268.969 625.585 283.969 625.585 283.969 L 645.585 283.969 L 652.585 247.969 Z " fill="rgb(85,83,110)"/><path d=" M 689.458 227.116 C 689.396 225.294 688.27 223.678 686.583 222.986 C 685.479 222.61 684.33 222.383 683.166 222.311 C 679.761 221.872 676.258 220.623 674.274 218.022 C 671.633 214.558 672.355 209.713 670.238 205.952 C 669.253 204.472 668.176 203.056 667.011 201.712 C 663.317 196.768 662.666 190.457 662.329 184.452 C 662.164 183.235 662.304 181.996 662.736 180.846 C 663.37 179.812 664.138 178.865 665.018 178.03 C 666.51 176.297 667.315 174.076 667.281 171.789 C 667.173 167.139 673.827 164.014 678.539 162.408 C 683.252 160.802 688.363 160.546 693.384 160.478 C 696.27 160.439 699.249 160.473 701.902 161.527 C 703.428 162.19 704.863 163.045 706.173 164.07 C 711.733 168.14 716.955 173.144 718.821 179.476 C 719.553 182.367 719.894 185.343 719.834 188.325 C 719.923 189.251 719.787 190.185 719.438 191.048 C 718.771 192.389 717.198 193.116 716.181 194.254 C 714.282 196.379 714.62 199.454 714.379 202.204 C 713.755 207.955 710.435 213.067 705.435 215.976 C 704.411 216.478 703.469 217.129 702.638 217.91 C 702.012 218.739 701.494 219.644 701.095 220.603 C 699.095 224.44 694.055 226.98 689.458 227.116 Z " fill="rgb(63,61,86)"/><path d=" M 192.598 10.671 L 179.278 18.05 L 193.483 13.04 L 192.598 10.671 L 192.598 10.671 Z " fill="rgb(121,117,140)"/><path d=" M 192.754 11.959 C 191.478 8.029 192.025 4.324 193.976 3.691 C 195.926 3.057 198.546 5.733 199.823 9.663 C 201.099 13.593 200.552 17.298 198.601 17.932 C 196.651 18.566 194.03 15.889 192.754 11.959 Z " fill="rgb(63,61,86)"/><path d=" M 205.206 5.969 C 204.305 3.194 204.768 0.553 206.24 0.075 C 207.711 -0.403 209.638 1.462 210.539 4.237 C 211.441 7.011 210.977 9.652 209.506 10.13 C 208.034 10.608 206.108 8.744 205.206 5.969 Z " fill="rgb(63,61,86)"/><path d=" M 197.145 6.488 L 205.98 3.299 L 207.858 8.5 L 199.307 14.276 L 197.145 6.488 L 197.145 6.488 Z " fill="rgb(63,61,86)"/><path d=" M 282.598 382.671 L 269.278 390.05 L 283.483 385.04 L 282.598 382.671 L 282.598 382.671 Z " fill="rgb(121,117,140)"/><path d=" M 282.754 383.959 C 281.477 380.029 282.025 376.324 283.975 375.691 C 285.926 375.057 288.546 377.733 289.823 381.663 C 291.099 385.593 290.552 389.298 288.601 389.932 C 286.651 390.566 284.03 387.889 282.754 383.959 Z " fill="rgb(63,61,86)"/><path d=" M 295.206 377.969 C 294.305 375.194 294.768 372.553 296.24 372.075 C 297.711 371.597 299.638 373.462 300.539 376.237 C 301.44 379.011 300.977 381.652 299.506 382.13 C 298.034 382.608 296.108 380.744 295.206 377.969 Z " fill="rgb(63,61,86)"/><path d=" M 287.145 378.488 L 295.98 375.299 L 297.858 380.5 L 289.307 386.276 L 287.145 378.488 L 287.145 378.488 Z " fill="rgb(63,61,86)"/></g></svg>