<?xml version="1.0" standalone="no"?><svg xmlns="http://www.w3.org/2000/svg" xmlns:xlink="http://www.w3.org/1999/xlink" style="isolation:isolate" viewBox="0 0 1229.46 849.87" width="1229.46" height="849.87"><defs><clipPath id="_clipPath_4brC53LF9at0PdysDdf99Db91Mvozfoi"><rect width="1229.46" height="849.87"/></clipPath></defs><g clip-path="url(#_clipPath_4brC53LF9at0PdysDdf99Db91Mvozfoi)"><g><path d=" M 62.165 372.812 C 44.02 339.501 38.902 300.635 47.805 263.762 C 73.035 159.462 144.655 -23.598 334.205 2.322 C 597.205 38.322 673.655 47.322 781.565 13.562 C 889.475 -20.198 1076.055 -20.158 1134.505 56.272 C 1169.935 102.602 1289.615 310.272 1213.185 382.272 C 1136.755 454.272 1250.185 596.622 1253.645 672.272 C 1257.105 747.922 1147.995 757.652 1010.865 759.952 C 873.735 762.252 76.705 736.062 76.705 736.062 C 76.705 736.062 -25.475 559.832 55.455 496.882 C 105.535 457.952 83.115 411.292 62.165 372.812 Z " fill="rgb(248,248,248)"/><path d=" M 141.905 653.632 C 124.365 653.022 58.655 661.992 54.805 665.432 C 53.805 666.362 39.435 709.092 102.665 764.322 C 203.825 852.682 476.055 855.702 564.285 822.092 C 692.285 773.322 832.545 864.772 1123.285 829.772 C 1216.195 818.592 1278.285 676.272 1236.045 657.822 C 1210.755 646.822 1180.475 676.012 1155.045 663.202 C 1125.775 648.432 1066.465 639.202 1029.745 650.532 C 1028.27 650.931 1027.375 652.426 1027.72 653.914 C 1028.064 655.403 1029.525 656.352 1031.025 656.062 L 1011.685 662.232 C 990.195 678.232 995.035 656.972 944.625 654.232 L 795.995 650.562 C 742.855 652.162 538.385 661.152 458.385 657.952 L 414.385 657.952 C 385.025 654.282 308.865 652.542 306.125 652.452 L 141.905 653.632 Z " fill="rgb(248,248,248)"/></g><circle vector-effect="non-scaling-stroke" cx="929.6094699118678" cy="324" r="9" fill="rgb(0,98,255)"/><g><path d=" M 374.11 753.94 L 370.11 544.94 L 391.11 544.94 L 390.11 753.94 L 374.11 753.94 L 374.11 753.94 Z " fill="rgb(86,86,86)"/><path d=" M 831.11 545.94 L 854.11 545.94 L 846.11 754.94 L 831.11 755.94 L 831.11 545.94 L 831.11 545.94 Z " fill="rgb(86,86,86)"/><path d=" M 354.11 508.94 L 355.11 542.94 L 864.11 545.94 L 864.65 507.91 L 354.11 508.94 L 354.11 508.94 Z " fill="rgb(65,65,65)"/><path d=" M 323.11 489.94 L 895.11 491.94 L 895.11 510.94 L 324.11 509.94 L 323.11 489.94 L 323.11 489.94 Z " fill="rgb(23,23,23)"/></g><g><path d=" M 441.85 185.73 L 442.59 377.45 L 976.14 376.71 L 976.14 187.22 L 441.85 185.73 L 441.85 185.73 Z " fill="rgb(255,255,255)"/><circle vector-effect="non-scaling-stroke" cx="493.34739442319005" cy="230.09739442319005" r="9.357394423190101" fill="rgb(0,98,255)"/><circle vector-effect="non-scaling-stroke" cx="928.35739442319" cy="325.68909836668627" r="9.357394423190158" fill="rgb(0,98,255)"/><circle vector-effect="non-scaling-stroke" cx="493.34739442319005" cy="265.0464927898764" r="9.357394423190101" fill="rgb(0,98,255)"/><circle vector-effect="non-scaling-stroke" cx="493.34739442319005" cy="300.09739442319005" r="9.357394423190101" fill="rgb(0,98,255)"/><circle vector-effect="non-scaling-stroke" cx="493.34739442319005" cy="335.04649278987637" r="9.357394423190101" fill="rgb(0,98,255)"/><rect x="207.29" y="188.21" width="193" height="189.24" transform="matrix(1,0,0,1,0,0)" fill="rgb(255,255,255)"/><circle vector-effect="non-scaling-stroke" cx="270.9299999999999" cy="244.0700000000001" r="43.07000000000011" fill="rgb(217,231,255)" stroke-width="2" stroke="rgb(0,98,255)" stroke-linejoin="round" stroke-linecap="round" stroke-miterlimit="4"/></g><g><path d=" M 758.466 492.481 L 622.216 491.383 L 602.009 391.953 L 740.316 393.075 L 760.985 492.425" fill="rgb(60,60,60)"/><ellipse vector-effect="non-scaling-stroke" cx="679.7504458873718" cy="445.1160582065065" rx="8.259571310143201" ry="8.742358258761328" fill="rgb(23,23,23)"/><path d=" M 759.667 485.453 L 834.042 485.374 C 834.49 485.372 834.879 485.681 834.977 486.118 L 835.978 490.585 C 836.04 490.866 835.971 491.159 835.791 491.383 C 835.611 491.608 835.339 491.738 835.051 491.738 L 760.954 492.416 C 760.514 492.422 760.128 492.125 760.019 491.698 L 758.74 486.631 C 758.669 486.347 758.734 486.045 758.915 485.815 C 759.096 485.584 759.374 485.451 759.667 485.453 Z " fill="rgb(86,86,86)"/><path d=" M 742.595 390.474 L 604.283 389.513 C 604.084 389.511 603.895 389.601 603.77 389.756 L 602 391.953 L 739.768 393.066 C 740.081 393.07 740.347 393.294 740.403 393.601 L 758.353 491.92 C 758.411 492.237 758.692 492.465 759.014 492.455 L 760.237 492.42 C 760.426 492.416 760.603 492.329 760.724 492.183 C 760.844 492.037 760.895 491.846 760.863 491.659 L 743.731 391.448 C 743.646 390.887 743.163 390.472 742.595 390.474 Z " fill="rgb(86,86,86)"/></g><path d="M 668.931 221 L 945.069 221 C 946.687 221 948 222.313 948 223.931 L 948 338.069 C 948 339.687 946.687 341 945.069 341 L 668.931 341 C 667.313 341 666 339.687 666 338.069 L 666 223.931 C 666 222.313 667.313 221 668.931 221 Z" style="stroke:none;fill:#FFFFFF;stroke-miterlimit:10;"/><path d="M 668.931 221 L 945.069 221 C 946.687 221 948 222.313 948 223.931 L 948 338.069 C 948 339.687 946.687 341 945.069 341 L 668.931 341 C 667.313 341 666 339.687 666 338.069 L 666 223.931 C 666 222.313 667.313 221 668.931 221 Z" style="fill:none;stroke:#D9E8FF;stroke-width:3;stroke-linecap:square;stroke-miterlimit:2;"/><path d="M 517.097 224 L 636.513 224 C 637.885 224 639 225.115 639 226.487 L 639 232.513 C 639 233.885 637.885 235 636.513 235 L 517.097 235 C 515.724 235 514.609 233.885 514.609 232.513 L 514.609 226.487 C 514.609 225.115 515.724 224 517.097 224 Z" style="stroke:none;fill:#D9E8FF;stroke-linecap:square;stroke-miterlimit:2;"/><path d="M 231.109 303 L 287.305 303 C 288.96 303 290.305 304.344 290.305 306 L 290.305 311 C 290.305 312.656 288.96 314 287.305 314 L 231.109 314 C 229.454 314 228.109 312.656 228.109 311 L 228.109 306 C 228.109 304.344 229.454 303 231.109 303 Z" style="stroke:none;fill:#D9E8FF;stroke-linecap:square;stroke-miterlimit:2;"/><path d="M 231.109 322 L 378 322 C 379.656 322 381 323.344 381 325 L 381 330 C 381 331.656 379.656 333 378 333 L 231.109 333 C 229.454 333 228.109 331.656 228.109 330 L 228.109 325 C 228.109 323.344 229.454 322 231.109 322 Z" style="stroke:none;fill:#D9E8FF;stroke-linecap:square;stroke-miterlimit:2;"/><path d="M 231.109 341 L 378 341 C 379.656 341 381 342.344 381 344 L 381 349 C 381 350.656 379.656 352 378 352 L 231.109 352 C 229.454 352 228.109 350.656 228.109 349 L 228.109 344 C 228.109 342.344 229.454 341 231.109 341 Z" style="stroke:none;fill:#D9E8FF;stroke-linecap:square;stroke-miterlimit:2;"/><path d="M 517.097 260 L 636.513 260 C 637.885 260 639 261.115 639 262.487 L 639 268.513 C 639 269.885 637.885 271 636.513 271 L 517.097 271 C 515.724 271 514.609 269.885 514.609 268.513 L 514.609 262.487 C 514.609 261.115 515.724 260 517.097 260 Z" style="stroke:none;fill:#D9E8FF;stroke-linecap:square;stroke-miterlimit:2;"/><path d="M 897.36 235 L 934.86 235 C 936.515 235 937.86 236.344 937.86 238 L 937.86 243 C 937.86 244.656 936.515 246 934.86 246 L 897.36 246 C 895.705 246 894.36 244.656 894.36 243 L 894.36 238 C 894.36 236.344 895.705 235 897.36 235 Z" style="stroke:none;fill:#D9E8FF;stroke-linecap:square;stroke-miterlimit:2;"/><path d="M 683.121 297.5 L 756.379 297.5 C 757.549 297.5 758.5 298.451 758.5 299.621 L 758.5 306.379 C 758.5 307.549 757.549 308.5 756.379 308.5 L 683.121 308.5 C 681.951 308.5 681 307.549 681 306.379 L 681 299.621 C 681 298.451 681.951 297.5 683.121 297.5 Z" style="stroke:none;fill:#D9E8FF;stroke-linecap:square;stroke-miterlimit:2;"/><path d="M 684 318 L 833 318 C 834.656 318 836 319.344 836 321 L 836 326 C 836 327.656 834.656 329 833 329 L 684 329 C 682.344 329 681 327.656 681 326 L 681 321 C 681 319.344 682.344 318 684 318 Z" style="stroke:none;fill:#D9E8FF;stroke-linecap:square;stroke-miterlimit:2;"/><path d="M 517.097 295 L 636.513 295 C 637.885 295 639 296.115 639 297.487 L 639 303.513 C 639 304.885 637.885 306 636.513 306 L 517.097 306 C 515.724 306 514.609 304.885 514.609 303.513 L 514.609 297.487 C 514.609 296.115 515.724 295 517.097 295 Z" style="stroke:none;fill:#D9E8FF;stroke-linecap:square;stroke-miterlimit:2;"/><path d="M 517.097 330 L 636.513 330 C 637.885 330 639 331.115 639 332.487 L 639 338.513 C 639 339.885 637.885 341 636.513 341 L 517.097 341 C 515.724 341 514.609 339.885 514.609 338.513 L 514.609 332.487 C 514.609 331.115 515.724 330 517.097 330 Z" style="stroke:none;fill:#D9E8FF;stroke-linecap:square;stroke-miterlimit:2;"/><g><g><g><path d=" M 1031.172 718.852 L 1034.387 718.762 L 1051.089 718.941 C 1051.089 718.941 1054.751 736.089 1056.716 743.234 C 1056.805 743.681 1057.251 744.842 1057.43 745.735 C 1057.698 746.986 1057.787 748.236 1057.787 749.486 C 1057.43 756.006 1055.019 761.455 1049.213 764.402 C 1042.872 767.617 1037.96 770.565 1031.172 764.402 C 1024.384 758.239 1023.491 754.309 1026.081 743.592 C 1028.671 732.874 1029.564 719.209 1031.172 718.852 Z " fill="rgb(23,23,23)"/><path d=" M 961.239 740.198 L 961.239 740.198 C 972.76 736.536 980.441 720.906 980.441 720.906 L 1000.09 719.745 C 1000.09 719.745 1001.162 735.643 1001.698 743.681 C 1002.413 754.399 1000.626 759.132 993.57 758.597 C 984.282 757.882 946.502 761.276 940.518 757.435 C 932.748 752.434 950.521 743.592 961.239 740.198 Z " fill="rgb(23,23,23)"/></g><g opacity="0.97"><path d=" M 1079.223 436.619 L 1079.223 460.109 L 1050.821 719.12 L 1030.725 719.12 C 1030.725 719.12 1023.759 541.474 1023.759 535.311 C 1023.759 529.148 1021.972 509.857 1021.972 509.857 C 1021.972 509.857 996.696 582.826 996.25 588.9 C 995.803 594.973 1000.358 720.638 1000.358 720.638 L 980.263 721.442 C 980.263 721.442 962.668 636.415 962.668 628.376 C 962.668 620.338 956.684 578.539 957.577 570.501 C 958.47 562.463 973.385 437.244 973.385 437.244 L 1004.199 436.44 L 1079.223 436.619 Z " fill="rgb(60,60,60)"/></g><path d=" M 948.913 409.378 L 949.181 409.021 C 949.092 409.289 949.003 409.467 948.913 409.378 Z  M 1007.95 386.603 L 1019.204 391.247 L 1019.829 406.788 L 1007.414 411.7 C 1007.414 411.611 993.838 411.164 993.838 411.075 C 993.749 410.45 988.48 410.629 986.068 412.147 L 944.001 397.678 L 942.483 387.585 C 942.483 387.585 939.357 400.268 953.468 374.724 L 1007.95 386.603 Z  M 957.666 335.337 L 958.559 330.246 L 960.703 329.889 L 957.666 335.337 Z  M 1035.459 200.026 C 1040.639 202.169 1043.14 209.761 1043.14 209.761 C 1043.14 209.761 1045.641 208.243 1045.641 212.53 C 1045.641 216.817 1043.497 226.463 1041.979 228.964 C 1039.299 233.161 1036.888 237.448 1034.744 241.914 C 1032.69 246.38 1033.405 255.49 1035.548 256.83 C 1037.692 258.169 1075.918 292.466 1075.918 292.466 L 1107.446 389.282 L 1107.446 393.123 L 1102.623 394.82 L 1097.621 399.107 C 1097.175 399.196 1090.834 402.68 1089.94 403.305 C 1084.939 405.806 1079.58 407.681 1074.132 408.932 C 1070.559 409.646 1054.751 409.289 1054.751 409.289 L 1038.763 408.932 L 1041.532 388.568 L 1065.2 388.3 L 1097.532 386.692 L 1064.754 311.311 L 961.328 329.799 C 979.727 296.574 1000.358 259.241 1002.145 255.311 C 1003.663 252.096 1002.055 244.415 1001.162 240.396 C 1000.358 236.734 998.572 232.268 996.875 230.928 C 995.178 229.589 992.141 223.694 992.141 221.104 C 992.141 218.514 991.427 208.421 993.57 210.565 C 994.196 211.19 996.696 207.35 997.59 203.509 C 999.019 197.972 1002.859 194.042 1007.325 190.469 C 1007.325 190.469 1030.1 197.972 1035.191 200.115" fill="rgb(244,221,172)"/><path d=" M 1075.025 271.656 C 1080.027 275.05 1084.671 279.605 1086.368 285.499 C 1088.065 291.394 1100.122 337.302 1101.73 343.107 C 1105.66 357.308 1107.982 361.416 1112.626 378.118 C 1118.342 398.66 1105.213 401.786 1091.816 404.823 C 1077.883 407.949 1077.794 409.289 1074.489 409.289 C 1073.953 409.289 1057.43 412.683 1056.894 403.305 C 1056.537 397.41 1057.609 388.032 1059.842 388.3 C 1064.933 389.015 1081.366 384.638 1082.17 384.102 C 1083.242 383.388 1078.598 370.526 1075.918 362.578 C 1073.953 356.683 1066.362 332.211 1064.665 327.656 C 1063.771 325.155 1068.952 351.413 1072.078 377.136 C 1072.167 378.118 1073.417 388.121 1073.06 388.121 C 1069.309 388.121 1059.038 388.3 1055.822 388.657 C 1041.354 390.354 1038.585 397.231 1039.478 402.769 C 1041.086 412.415 1076.275 407.949 1076.097 409.2 C 1076.097 409.2 1082.17 436.53 1078.776 438.227 C 1075.829 439.745 1036.352 456.179 1027.956 459.394 C 1027.063 459.751 1025.992 459.305 1025.634 458.322 C 1025.634 458.322 1025.634 458.322 1025.634 458.233 L 1020.275 442.871 C 1020.186 442.692 1020.007 442.603 1019.829 442.692 C 1019.74 442.692 1019.65 442.782 1019.65 442.871 L 1014.559 459.662 C 1014.47 460.109 1014.113 460.466 1013.755 460.644 L 1011.523 460.644 L 967.669 451.177 C 967.669 451.177 967.848 433.85 967.937 411.7 C 967.937 409.467 968.295 401.251 969.902 402.769 C 971.51 404.287 1008.129 409.11 1012.148 407.413 C 1020.633 403.841 1018.4 394.999 1015.452 391.337 C 1012.059 387.139 968.83 385.085 968.652 381.959 C 967.937 368.383 969.009 332.747 969.724 337.034 C 970.795 343.732 996.071 380.351 996.071 386.692 C 996.071 393.034 996.518 409.11 996.518 409.11 L 954.987 405.895 C 954.987 405.895 941.054 401.072 939.803 393.034 C 938.553 384.995 940.071 381.423 940.607 369.455 C 940.964 361.863 951.682 316.223 954.719 303.273 C 955.165 301.308 955.433 299.343 955.612 297.378 C 955.969 292.019 958.113 279.515 969.634 274.067 C 983.925 267.279 995.089 261.92 997.947 261.92 C 1000.626 261.92 1007.95 277.997 1011.791 282.552 C 1013.488 284.606 1013.13 285.589 1015.363 288.625 C 1016.524 290.233 1018.668 290.501 1020.275 289.429 C 1020.633 289.161 1020.901 288.804 1021.169 288.447 C 1022.419 286.66 1023.491 284.696 1024.473 282.731 C 1026.17 279.337 1039.299 259.956 1039.299 259.956 C 1039.299 259.956 1070.023 268.172 1075.025 271.656 Z " fill="rgb(86,86,86)"/><linearGradient id="_lgradient_1" x1="-0.0009413625511456303" y1="0.5002569364195726" x2="0.9988931827926899" y2="0.5002569364195726" gradientTransform="matrix(-58.149,0,0,42.334,1048.866,172.875)" gradientUnits="userSpaceOnUse"><stop offset="1.7391304347826086%" stop-opacity="1" style="stop-color:rgb(23,23,23)"/><stop offset="55.65217391304348%" stop-opacity="1" style="stop-color:rgb(60,60,60)"/><stop offset="98.26086956521739%" stop-opacity="1" style="stop-color:rgb(23,23,23)"/></linearGradient><path d=" M 1007.414 190.558 C 1007.414 190.558 1035.459 201.008 1037.424 202.527 C 1039.389 204.045 1043.14 209.761 1043.14 209.761 C 1043.14 209.761 1045.105 208.689 1045.551 211.637 C 1045.551 211.637 1048.409 205.742 1048.767 202.437 C 1049.124 199.133 1048.767 190.648 1043.408 185.021 C 1038.049 179.394 1027.242 171.981 1020.543 172.964 C 1013.845 173.946 1010.987 174.75 1006.789 178.948 C 1002.591 183.145 999.019 184.396 997.768 185.021 C 996.518 185.646 991.695 189.129 990.891 195.649 C 990.087 202.169 992.32 215.209 992.32 215.209 C 992.32 215.209 991.695 210.118 993.749 211.726 C 995.178 212.798 997.232 208.153 997.858 205.385 C 998.661 202.705 1005.896 191.273 1007.414 190.558 Z " fill="url(#_lgradient_1)"/><g style="opacity:0.07;"><g style="opacity:0.07;"><g opacity="0.07"><clipPath id="_clipPath_BhHEMCCEWLyxkjjBZ4zl880XB8Lt0yzz"><rect x="997.411" y="242.539" width="18.577" height="30.456" transform="matrix(1,0,0,1,0,0)" fill="rgb(255,255,255)"/></clipPath><g clip-path="url(#_clipPath_BhHEMCCEWLyxkjjBZ4zl880XB8Lt0yzz)"><g style="opacity:0.07;"><g opacity="0.07"><path d=" M 998.036 262.01 C 998.215 261.474 995 263.885 998.751 261.206 C 1004.02 257.365 1001.519 241.646 1001.519 241.646 C 1003.484 245.755 1006.878 248.97 1011.076 250.578 C 1017.775 253.078 1019.829 251.203 1009.468 257.187 C 999.287 263.082 1004.556 265.136 1005.271 272.906" fill="rgb(0,0,0)"/></g></g></g></g></g></g><g><g style="opacity:0.07;"><g style="opacity:0.07;"><g opacity="0.07"><clipPath id="_clipPath_W5PktuBDzjVX6weaTu5D22FvwGLeW476"><rect x="955.433" y="298.807" width="51.802" height="89.939" transform="matrix(1,0,0,1,0,0)" fill="rgb(255,255,255)"/></clipPath><g clip-path="url(#_clipPath_W5PktuBDzjVX6weaTu5D22FvwGLeW476)"><g style="opacity:0.07;"><g opacity="0.07"><path d=" M 977.494 317.563 L 963.561 370.348 C 963.561 370.348 963.65 379.726 966.419 381.155 C 969.188 382.584 977.941 383.477 979.995 384.37 C 982.049 385.263 1003.395 389.729 997.858 382.227 C 996.607 380.53 967.669 370.437 980.62 359.809 C 993.57 349.18 991.248 334.444 984.996 324.262 C 978.744 314.08 980.084 305.416 980.084 305.416 L 977.494 317.563 Z " fill="rgb(0,0,0)"/></g></g></g></g></g></g><g style="opacity:0.07;"><g style="opacity:0.07;"><g opacity="0.07"><rect x="1041.443" y="437.066" width="42.246" height="321.442" transform="matrix(1,0,0,1,0,0)" fill="none"/></g></g></g><path d=" M 1047.963 370.705 L 1000.716 376.6 C 999.733 376.868 999.108 377.761 999.197 378.833 L 1000.537 421.525 C 1000.626 422.865 1001.43 424.651 1002.681 424.294 L 1049.66 415.273 C 1050.553 415.005 1051.178 414.201 1051.178 413.219 L 1051.357 408.574 L 1046.177 407.235 C 1044.837 406.877 1043.586 406.163 1042.515 405.359 C 1042.247 405.18 1042.068 405.002 1041.889 404.734 L 1040.818 403.126 C 1040.46 402.68 1040.371 402.054 1040.46 401.429 C 1040.639 400.447 1040.907 399.107 1041.086 398.393 C 1041.175 398.125 1041.264 397.857 1041.354 397.678 L 1042.515 395.177 C 1043.051 394.016 1043.944 393.123 1045.105 392.587 L 1045.819 392.23 L 1050.91 389.461 L 1050.464 372.759 C 1050.464 371.598 1049.481 370.705 1048.32 370.705 C 1048.141 370.705 1048.052 370.705 1047.963 370.705 Z " fill="rgb(23,23,23)"/></g></g></g><circle vector-effect="non-scaling-stroke" cx="931.8597349559332" cy="323.6426055768096" r="6" fill="rgb(0,98,255)"/><circle vector-effect="non-scaling-stroke" cx="914.2852111536189" cy="323.64260557680944" r="6" fill="rgb(0,98,255)"/><circle vector-effect="non-scaling-stroke" cx="895.1099999999999" cy="324" r="6" fill="rgb(0,98,255)"/><circle vector-effect="non-scaling-stroke" cx="876.9999999999998" cy="324" r="6" fill="rgb(0,98,255)"/></g></svg>
