<?xml version="1.0" standalone="no"?><!-- Generator: Gravit.io --><svg xmlns="http://www.w3.org/2000/svg" xmlns:xlink="http://www.w3.org/1999/xlink" style="isolation:isolate" viewBox="0 0 1229 850" width="1229" height="850"><g style="isolation:isolate"><g><path d=" M 197.967 445.856 C 182.507 342.832 147.965 333.852 121.404 281.85 C 97.224 234.549 77.723 157.166 145.965 101.844 C 251.969 15.841 381.974 103.844 381.974 103.844 C 381.974 103.844 587.981 221.848 623.982 227.848 C 659.983 233.849 747.987 293.851 857.99 221.848 C 967.994 149.846 1061.998 155.846 1091.999 209.848 C 1122 263.85 1053.997 419.855 1037.997 451.856 C 1021.996 483.857 1045.997 583.861 1071.998 623.862 C 1097.999 663.864 1180.002 787.868 1003.996 783.868 C 827.989 779.868 299.971 785.868 299.971 785.868 C 299.971 785.868 110.424 782.328 143.965 597.861 C 171.966 443.856 203.967 485.857 197.967 445.856 Z " fill="rgb(243,243,243)"/><circle vector-effect="non-scaling-stroke" cx="265.96956960227203" cy="391.85408582020193" r="40.001408814709634" fill="rgb(186,197,244)"/><circle vector-effect="non-scaling-stroke" cx="198.96720983763385" cy="440.85581161822165" r="27.000950949928978" fill="rgb(186,197,244)"/><circle vector-effect="non-scaling-stroke" cx="202.96735071910487" cy="378.85362795542136" r="15.000528305516099" fill="rgb(186,197,244)"/><circle vector-effect="non-scaling-stroke" cx="1089.9985911852903" cy="661.8635953194923" r="40.00140881470952" fill="rgb(0,98,255)"/><circle vector-effect="non-scaling-stroke" cx="378.9735495038265" cy="658.8634896583889" r="71.00250064610958" fill="rgb(211,211,211)"/><circle vector-effect="non-scaling-stroke" cx="847.990067856298" cy="715.8654972193506" r="48.001690577651516" fill="rgb(211,211,211)"/><circle vector-effect="non-scaling-stroke" cx="837.9897156526199" cy="233.84852100209912" r="52.00183145912251" fill="none"/><circle vector-effect="non-scaling-stroke" cx="360.97291553720754" cy="94.84362537098343" r="25.000880509193507" fill="rgb(211,211,211)"/><circle vector-effect="non-scaling-stroke" cx="280.9700979077884" cy="592.8611651141182" r="25.000880509193507" fill="rgb(0,98,255)"/><circle vector-effect="non-scaling-stroke" cx="1086.9984855241871" cy="302.85095120747303" r="25.00088050919362" fill="rgb(211,211,211)"/><circle vector-effect="non-scaling-stroke" cx="1046.9970767094776" cy="726.8658846433952" r="27.00095094992895" fill="rgb(211,211,211)"/></g><g><g><defs><filter id="idBoGdTSdj4blXAT73dhYQcoQeu8WvzB" x="-200%" y="-200%" width="400%" height="400%" filterUnits="objectBoundingBox" color-interpolation-filters="sRGB"><feGaussianBlur xmlns="http://www.w3.org/2000/svg" in="SourceGraphic" stdDeviation="0"/><feOffset xmlns="http://www.w3.org/2000/svg" dx="-5" dy="5" result="pf_100_offsetBlur"/><feFlood xmlns="http://www.w3.org/2000/svg" flood-color="#D3D3D3" flood-opacity="1"/><feComposite xmlns="http://www.w3.org/2000/svg" in2="pf_100_offsetBlur" operator="in" result="pf_100_dropShadow"/><feBlend xmlns="http://www.w3.org/2000/svg" in="SourceGraphic" in2="pf_100_dropShadow" mode="normal"/></filter></defs><g filter="url(#idBoGdTSdj4blXAT73dhYQcoQeu8WvzB)"><path d="M 127.5 145 L 631.517 145 C 633.173 145 634.517 146.344 634.517 148 L 634.517 527.513 C 634.517 529.168 633.173 530.513 631.517 530.513 L 127.5 530.513 C 125.845 530.513 124.5 529.168 124.5 527.513 L 124.5 148 C 124.5 146.344 125.845 145 127.5 145 Z" style="stroke:none;fill:#565656;stroke-miterlimit:10;"/></g><rect x="129.001" y="151" width="499.516" height="27.001" transform="matrix(1,0,0,1,0,0)" fill="rgb(86,86,86)"/></g><g><circle vector-effect="non-scaling-stroke" cx="143.25105754676042" cy="162.25066404098897" r="5.250172158774973" fill="rgb(211,211,211)"/><circle vector-effect="non-scaling-stroke" cx="159.75159861719598" cy="162.25066404098897" r="5.250172158774973" fill="rgb(211,211,211)"/><circle vector-effect="non-scaling-stroke" cx="176.2521396876314" cy="162.25066404098897" r="5.250172158774973" fill="rgb(211,211,211)"/></g></g></g><g style="isolation:isolate"/><g style="isolation:isolate"/><g><path d=" M 848.412 266.652 L 676.412 290.152 C 669.812 291.052 665.212 297.052 666.112 303.652 L 666.112 303.652 L 691.512 489.652 C 692.412 496.252 698.412 500.852 705.012 499.952 L 705.012 499.952 L 877.012 476.452 C 883.612 475.552 888.212 469.552 887.312 462.952 L 887.312 462.952 L 861.912 276.952 C 861.012 270.452 855.012 265.752 848.412 266.652 L 848.412 266.652 Z " fill="rgb(255,255,255)"/><path d=" M 769.512 415.252 C 769.512 415.252 769.512 415.252 769.512 415.252 C 769.512 415.252 769.512 415.252 769.512 415.252 C 769.512 415.252 769.512 415.252 769.512 415.252 C 769.512 415.252 769.512 415.252 769.512 415.252 Z " fill="none" vector-effect="non-scaling-stroke" stroke-width="1" stroke="rgb(193,39,45)" stroke-linejoin="miter" stroke-linecap="butt" stroke-miterlimit="10"/><g><path d=" M 929.912 774.652 C 935.012 775.652 952.812 770.152 955.812 767.352 C 956.812 766.452 957.612 763.852 958.412 762.752 C 959.112 759.252 960.812 761.052 962.512 760.752 C 967.612 759.652 981.412 756.052 987.912 759.552 C 989.112 762.252 989.212 764.852 990.012 766.352 C 991.712 773.152 992.812 780.152 993.512 787.152 C 994.012 791.452 990.912 795.252 986.712 795.752 C 986.712 795.752 986.712 795.752 986.612 795.752 L 986.512 795.752 C 985.112 795.852 983.612 795.752 982.112 795.552 C 971.112 792.852 948.812 792.152 940.212 788.752 C 925.812 784.952 917.612 777.352 929.912 774.652 Z " fill="rgb(28,28,28)"/><path d=" M 762.812 782.752 C 767.812 784.052 786.012 779.652 789.112 777.052 C 790.212 776.252 791.112 773.752 792.012 772.652 C 792.912 769.252 794.512 771.052 796.212 770.852 C 801.412 770.052 815.412 767.252 821.712 771.152 C 822.812 773.852 822.612 776.552 823.312 778.052 C 824.512 784.952 825.312 792.052 825.512 799.052 C 825.712 803.352 822.412 806.952 818.112 807.252 C 818.112 807.252 818.112 807.252 818.012 807.252 L 817.912 807.252 C 816.512 807.352 815.012 807.152 813.612 806.852 C 802.812 803.452 780.612 801.452 772.212 797.452 C 758.112 792.752 750.312 784.652 762.812 782.752 Z " fill="rgb(28,28,28)"/></g><linearGradient id="_lgradient_6" x1="1.6653345369377348e-16" y1="0.4999999999999999" x2="1.0000000000000002" y2="0.4999999999999999" gradientTransform="matrix(-199.8,0,0,281.5,988.512,490.552)" gradientUnits="userSpaceOnUse"><stop offset="0%" stop-opacity="1" style="stop-color:rgb(5,48,173)"/><stop offset="98.69565217391305%" stop-opacity="1" style="stop-color:rgb(151,177,219)"/></linearGradient><path d=" M 988.512 759.752 C 979.812 760.952 958.912 761.252 958.912 761.252 C 958.912 761.252 957.612 751.052 951.212 731.452 C 944.712 711.552 912.012 649.152 912.012 649.152 C 905.312 638.952 898.312 617.852 898.312 617.852 L 888.512 537.052 C 888.512 537.052 836.812 617.752 837.512 636.052 C 838.212 654.352 825.412 725.952 825.412 725.952 C 824.112 736.652 817.712 772.052 817.712 772.052 C 808.112 770.852 798.412 770.652 788.712 771.252 C 790.012 756.552 795.312 696.252 795.312 696.252 C 795.312 696.252 798.612 649.452 799.312 620.952 C 800.012 592.452 820.312 532.352 834.012 504.852 C 835.812 500.152 837.312 495.452 838.512 490.552 L 959.412 505.852 C 956.712 513.552 954.512 521.352 952.912 529.352 C 945.812 565.052 940.812 625.052 940.812 625.052 C 959.712 646.452 971.612 686.752 971.612 686.752 C 979.312 710.952 988.512 759.752 988.512 759.752 Z " fill="url(#_lgradient_6)"/><g><linearGradient id="_lgradient_7" x1="-6.661338147750939e-16" y1="0.5000005270960499" x2="1.0014064815216057" y2="0.5000005270960499" gradientTransform="matrix(-66.36,0,0,30.523,914.812,263.529)" gradientUnits="userSpaceOnUse"><stop offset="0%" stop-opacity="1" style="stop-color:rgb(248,123,88)"/><stop offset="0%" stop-opacity="1" style="stop-color:rgb(248,123,88)"/><stop offset="41%" stop-opacity="1" style="stop-color:rgb(248,148,83)"/><stop offset="94%" stop-opacity="1" style="stop-color:rgb(248,197,72)"/></linearGradient><path d=" M 854.112 264.552 C 872.712 261.052 891.812 267.652 891.812 267.652 L 895.012 268.652 L 914.812 294.052 L 896.512 289.152 C 891.612 287.452 882.012 284.852 877.612 285.152 C 874.312 284.952 866.512 286.552 862.812 283.552 C 860.012 282.252 859.512 279.952 853.812 274.352 C 849.712 269.852 850.912 268.552 849.312 267.952 C 847.212 267.052 849.012 264.952 854.112 264.552 Z " fill="url(#_lgradient_7)" fill-opacity="0.5"/><linearGradient id="_lgradient_8" x1="0" y1="0.5000024150917515" x2="1.0014042570580672" y2="0.5000024150917515" gradientTransform="matrix(-37.944,0,0,28.138,826.312,471.252)" gradientUnits="userSpaceOnUse"><stop offset="0%" stop-opacity="1" style="stop-color:rgb(248,123,88)"/><stop offset="0%" stop-opacity="1" style="stop-color:rgb(248,123,88)"/><stop offset="41%" stop-opacity="1" style="stop-color:rgb(248,148,83)"/><stop offset="94%" stop-opacity="1" style="stop-color:rgb(248,197,72)"/></linearGradient><path d=" M 788.412 490.152 C 788.612 489.152 792.212 489.752 792.812 488.852 C 796.712 483.352 801.312 476.352 811.112 473.052 C 813.912 472.152 816.812 471.552 819.712 471.252 L 826.312 482.752 C 825.512 484.752 824.412 486.652 823.212 488.352 C 819.212 493.752 810.812 501.052 795.412 499.052 C 791.812 498.652 787.912 493.852 788.412 490.152 Z " fill="url(#_lgradient_8)" fill-opacity="0.5"/><linearGradient id="_lgradient_9" x1="0" y1="0.4999996091114551" x2="1.001405776025682" y2="0.4999996091114551" gradientTransform="matrix(-62.409,0,0,79.946,982.712,234.452)" gradientUnits="userSpaceOnUse"><stop offset="0%" stop-opacity="1" style="stop-color:rgb(248,123,88)"/><stop offset="0%" stop-opacity="1" style="stop-color:rgb(248,123,88)"/><stop offset="41%" stop-opacity="1" style="stop-color:rgb(248,148,83)"/><stop offset="94%" stop-opacity="1" style="stop-color:rgb(248,197,72)"/></linearGradient><path d=" M 925.912 234.452 C 928.112 234.452 974.512 270.252 974.912 274.252 C 975.012 276.352 975.112 285.452 976.712 291.452 C 978.212 297.052 982.712 305.052 982.712 305.052 C 982.712 305.052 978.712 312.552 968.312 314.052 C 958.312 315.452 944.912 312.152 944.912 312.152 C 944.912 312.152 948.012 292.352 944.212 290.152 C 940.912 288.252 939.912 290.252 928.512 280.652 C 917.112 271.052 920.812 246.852 921.112 245.252 C 921.412 243.652 923.712 234.452 925.912 234.452 Z " fill="url(#_lgradient_9)" fill-opacity="0.5"/></g><linearGradient id="_lgradient_10" x1="7.36333796971713e-8" y1="0.49999999999999994" x2="1" y2="0.49999999999999994" gradientTransform="matrix(-210.944,0,0,237.5,1023.757,268.552)" gradientUnits="userSpaceOnUse"><stop offset="0%" stop-opacity="1" style="stop-color:rgb(211,211,211)"/><stop offset="100%" stop-opacity="1" style="stop-color:rgb(255,255,255)"/></linearGradient><path d=" M 872.912 401.952 C 888.012 388.252 897.612 345.552 902.412 334.852 C 907.212 324.152 914.912 321.152 917.912 319.952 C 919.412 319.352 927.712 317.052 933.912 315.252 L 888.912 286.952 C 882.812 275.452 894.812 268.552 894.812 268.552 L 946.012 293.952 L 946.012 311.252 L 962.612 308.552 L 982.412 304.652 C 988.512 303.252 994.712 302.252 1000.912 301.752 C 1003.512 301.552 1006.112 301.852 1008.612 302.752 L 1009.912 303.252 C 1013.012 304.352 1015.612 306.552 1017.112 309.552 C 1020.312 316.552 1022.512 324.052 1023.512 331.652 C 1025.412 343.952 1015.912 371.852 1006.212 392.152 C 1002.012 400.752 985.612 444.952 981.512 456.052 C 961.512 502.452 960.112 506.052 960.112 506.052 C 898.712 505.452 838.912 491.752 838.912 491.752 C 836.112 486.652 846.212 471.852 846.212 471.852 L 827.612 487.252 C 819.512 489.852 812.812 471.752 812.812 471.752 C 812.812 471.752 860.212 413.452 872.912 401.952 Z " fill="url(#_lgradient_10)"/><linearGradient id="_lgradient_11" x1="-0.06839875114337546" y1="0.7194032912395782" x2="0.8459276881659792" y2="0.31822173327619585" gradientTransform="matrix(-65.108,0,0,64.552,985.639,216)" gradientUnits="userSpaceOnUse"><stop offset="1.7391304347826086%" stop-opacity="1" style="stop-color:rgb(23,23,23)"/><stop offset="98.69565217391305%" stop-opacity="1" style="stop-color:rgb(86,86,86)"/></linearGradient><path d=" M 983.612 236.552 C 982.612 234.752 980.412 230.652 979.112 229.152 C 976.912 226.852 974.512 224.652 972.012 222.552 C 969.712 221.152 964.012 218.252 961.812 217.052 C 954.012 214.652 943.612 217.052 936.012 217.452 C 929.112 216.952 924.012 225.552 921.312 231.252 C 918.612 236.952 923.812 236.252 923.312 240.652 C 923.212 241.452 925.512 242.652 927.512 243.752 C 929.512 244.852 935.212 253.952 937.212 258.252 C 939.312 247.752 946.312 266.452 945.012 268.752 C 947.812 270.552 951.212 278.152 956.212 280.552 C 959.712 279.052 966.212 273.252 974.912 274.852 C 975.512 273.252 984.112 266.852 985.012 256.052 C 985.712 252.852 986.412 241.352 983.612 236.552 Z " fill="url(#_lgradient_11)"/><g opacity="0.07"><path d=" M 957.112 283.752 C 957.112 283.752 949.312 290.752 944.612 290.552 L 945.812 296.452 L 945.512 304.952 C 945.512 304.952 948.512 300.152 952.312 295.252 C 954.712 291.852 956.412 287.952 957.112 283.752 Z " fill="rgb(0,0,0)"/></g><g opacity="0.07"><path d=" M 928.812 369.652 C 928.812 369.652 919.012 399.152 888.812 429.852 C 858.612 460.552 851.312 466.952 851.312 466.952 C 851.312 466.952 845.112 474.752 847.112 479.952 C 849.112 485.152 862.312 467.752 891.912 454.252 C 908.812 446.552 914.612 433.252 922.412 414.652 C 932.212 391.152 934.412 386.152 935.712 377.752 C 939.012 355.752 928.812 369.652 928.812 369.652 Z " fill="rgb(0,0,0)"/></g><g opacity="0.07"><path d=" M 888.612 536.952 C 888.612 536.952 902.912 567.852 907.012 582.952 C 911.212 598.552 911.212 621.252 923.812 632.252 C 938.112 644.752 954.912 686.752 958.812 695.652 C 964.312 708.352 975.612 778.352 972.312 783.252 C 969.112 788.052 956.212 780.852 956.212 780.852 C 956.212 780.852 960.912 763.052 956.912 746.952 C 952.912 730.852 934.112 687.852 922.312 666.552 C 911.612 647.452 900.712 625.352 898.312 612.552 C 895.912 599.752 888.612 536.952 888.612 536.952 Z " fill="rgb(0,0,0)"/></g><g><rect x="129.001" y="176.501" width="499.516" height="348.011" transform="matrix(1,0,0,1,0,0)" fill="rgb(243,243,243)"/><path d="M 251 250 L 443 250 C 444.656 250 446 251.344 446 253 L 446 495 C 446 496.656 444.656 498 443 498 L 251 498 C 249.344 498 248 496.656 248 495 L 248 253 C 248 251.344 249.344 250 251 250 Z" style="stroke:none;fill:#FFFFFF;stroke-miterlimit:10;"/><path d="M 462 250 L 602 250 C 603.656 250 605 251.344 605 253 L 605 347 C 605 348.656 603.656 350 602 350 L 462 350 C 460.344 350 459 348.656 459 347 L 459 253 C 459 251.344 460.344 250 462 250 Z" style="stroke:none;fill:#FFFFFF;stroke-miterlimit:10;"/><rect x="129.001" y="176.501" width="101.999" height="348.011" transform="matrix(1,0,0,1,0,0)" fill="rgb(255,255,255)"/><rect x="129.001" y="176.501" width="499.516" height="30" transform="matrix(1,0,0,1,0,0)" fill="rgb(255,255,255)"/><g><path d="M 149 188.501 L 205 188.501 C 206.104 188.501 207 189.397 207 190.501 L 207 194.501 C 207 195.605 206.104 196.501 205 196.501 L 149 196.501 C 147.896 196.501 147 195.605 147 194.501 L 147 190.501 C 147 189.397 147.896 188.501 149 188.501 Z" style="stroke:none;fill:#DCDCDC;stroke-miterlimit:10;"/><path d="M 252 225 L 323 225 C 324.104 225 325 225.896 325 227 L 325 235 C 325 236.104 324.104 237 323 237 L 252 237 C 250.896 237 250 236.104 250 235 L 250 227 C 250 225.896 250.896 225 252 225 Z" style="stroke:none;fill:#B7B5B5;stroke-miterlimit:10;"/><path d="M 542 227 L 592 227 C 593.104 227 594 227.896 594 229 L 594 233 C 594 234.104 593.104 235 592 235 L 542 235 C 540.896 235 540 234.104 540 233 L 540 229 C 540 227.896 540.896 227 542 227 Z" style="stroke:none;fill:#DCDCDC;stroke-miterlimit:10;"/><path d="M 149 226 L 200 226 C 201.104 226 202 226.896 202 228 L 202 232 C 202 233.104 201.104 234 200 234 L 149 234 C 147.896 234 147 233.104 147 232 L 147 228 C 147 226.896 147.896 226 149 226 Z" style="stroke:none;fill:#DCDCDC;stroke-miterlimit:10;"/><path d="M 162 243 L 198 243 C 199.104 243 200 243.896 200 245 L 200 249 C 200 250.104 199.104 251 198 251 L 162 251 C 160.896 251 160 250.104 160 249 L 160 245 C 160 243.896 160.896 243 162 243 Z" style="stroke:none;fill:#DCDCDC;stroke-miterlimit:10;"/><path d="M 261 265 L 297 265 C 298.104 265 299 265.896 299 267 L 299 271 C 299 272.104 298.104 273 297 273 L 261 273 C 259.896 273 259 272.104 259 271 L 259 267 C 259 265.896 259.896 265 261 265 Z" style="stroke:none;fill:#DCDCDC;stroke-miterlimit:10;"/><path d="M 694.83 316.31 L 746.436 308.86 C 747.528 308.703 748.543 309.462 748.701 310.554 L 749.734 317.708 C 749.892 318.801 749.133 319.816 748.04 319.973 L 696.435 327.423 C 695.342 327.581 694.327 326.822 694.17 325.729 L 693.137 318.576 C 692.979 317.483 693.738 316.468 694.83 316.31 Z" style="stroke:none;fill:#D3D3D3;stroke-miterlimit:10;"/><path d="M 261 278.749 L 297 278.749 C 298.104 278.749 299 279.646 299 280.749 L 299 284.749 C 299 285.853 298.104 286.749 297 286.749 L 261 286.749 C 259.896 286.749 259 285.853 259 284.749 L 259 280.749 C 259 279.646 259.896 278.749 261 278.749 Z" style="stroke:none;fill:#DCDCDC;stroke-miterlimit:10;"/><path d="M 697.588 335.41 L 749.193 327.96 C 750.286 327.802 751.301 328.561 751.458 329.654 L 752.491 336.808 C 752.649 337.9 751.89 338.915 750.797 339.073 L 699.192 346.523 C 698.1 346.68 697.085 345.922 696.927 344.829 L 695.894 337.675 C 695.736 336.583 696.495 335.568 697.588 335.41 Z" style="stroke:none;fill:#D3D3D3;stroke-miterlimit:10;"/><path d="M 261 292.499 L 314 292.499 C 315.104 292.499 316 293.395 316 294.499 L 316 298.499 C 316 299.603 315.104 300.499 314 300.499 L 261 300.499 C 259.896 300.499 259 299.603 259 298.499 L 259 294.499 C 259 293.395 259.896 292.499 261 292.499 Z" style="stroke:none;fill:#DCDCDC;stroke-miterlimit:10;"/><path d="M 700.345 354.509 L 775.565 343.65 C 776.658 343.493 777.673 344.252 777.83 345.344 L 778.863 352.498 C 779.021 353.591 778.262 354.606 777.17 354.763 L 701.949 365.622 C 700.857 365.78 699.842 365.021 699.684 363.929 L 698.651 356.775 C 698.494 355.682 699.252 354.667 700.345 354.509 Z" style="stroke:none;fill:#D3D3D3;stroke-miterlimit:10;"/><path d="M 162 258 L 198 258 C 199.104 258 200 258.896 200 260 L 200 264 C 200 265.104 199.104 266 198 266 L 162 266 C 160.896 266 160 265.104 160 264 L 160 260 C 160 258.896 160.896 258 162 258 Z" style="stroke:none;fill:#DCDCDC;stroke-miterlimit:10;"/><path d="M 163 313.625 L 199 313.625 C 200.104 313.625 201 314.521 201 315.625 L 201 319.625 C 201 320.729 200.104 321.625 199 321.625 L 163 321.625 C 161.896 321.625 161 320.729 161 319.625 L 161 315.625 C 161 314.521 161.896 313.625 163 313.625 Z" style="stroke:none;fill:#DCDCDC;stroke-miterlimit:10;"/><path d="M 499 187.501 L 535 187.501 C 536.104 187.501 537 188.397 537 189.501 L 537 193.501 C 537 194.605 536.104 195.501 535 195.501 L 499 195.501 C 497.896 195.501 497 194.605 497 193.501 L 497 189.501 C 497 188.397 497.896 187.501 499 187.501 Z" style="stroke:none;fill:#DCDCDC;stroke-miterlimit:10;"/><path d="M 551 187.501 L 587 187.501 C 588.104 187.501 589 188.397 589 189.501 L 589 193.501 C 589 194.605 588.104 195.501 587 195.501 L 551 195.501 C 549.896 195.501 549 194.605 549 193.501 L 549 189.501 C 549 188.397 549.896 187.501 551 187.501 Z" style="stroke:none;fill:#DCDCDC;stroke-miterlimit:10;"/><path d="M 163 328.375 L 199 328.375 C 200.104 328.375 201 329.271 201 330.375 L 201 334.375 C 201 335.479 200.104 336.375 199 336.375 L 163 336.375 C 161.896 336.375 161 335.479 161 334.375 L 161 330.375 C 161 329.271 161.896 328.375 163 328.375 Z" style="stroke:none;fill:#DCDCDC;stroke-miterlimit:10;"/><path d="M 162 270.749 L 198 270.749 C 199.104 270.749 200 271.646 200 272.749 L 200 276.749 C 200 277.853 199.104 278.749 198 278.749 L 162 278.749 C 160.896 278.749 160 277.853 160 276.749 L 160 272.749 C 160 271.646 160.896 270.749 162 270.749 Z" style="stroke:none;fill:#DCDCDC;stroke-miterlimit:10;"/><path d="M 150 295 L 201 295 C 202.104 295 203 295.896 203 297 L 203 301 C 203 302.104 202.104 303 201 303 L 150 303 C 148.896 303 148 302.104 148 301 L 148 297 C 148 295.896 148.896 295 150 295 Z" style="stroke:none;fill:#DCDCDC;stroke-miterlimit:10;"/><path d="M 150 351.5 L 201 351.5 C 202.104 351.5 203 352.396 203 353.5 L 203 357.5 C 203 358.604 202.104 359.5 201 359.5 L 150 359.5 C 148.896 359.5 148 358.604 148 357.5 L 148 353.5 C 148 352.396 148.896 351.5 150 351.5 Z" style="stroke:none;fill:#DCDCDC;stroke-miterlimit:10;"/></g></g></g></svg>