<?xml version="1.0" standalone="no"?><!-- Generator: Gravit.io --><svg xmlns="http://www.w3.org/2000/svg" xmlns:xlink="http://www.w3.org/1999/xlink" style="isolation:isolate" viewBox="0 0 300 300" width="300" height="300"><path d="M 15 10 L 285 10 C 287.76 10 290 12.24 290 15 L 290 285 C 290 287.76 287.76 290 285 290 L 15 290 C 12.24 290 10 287.76 10 285 L 10 15 C 10 12.24 12.24 10 15 10 Z" style="stroke:none;fill:#171717;stroke-miterlimit:10;"/><path d=" M 157.479 180.056 L 155.936 180.056 L 155.936 180.056 Q 155.791 178.598 154.649 177.738 L 154.649 177.738 L 154.649 177.738 Q 153.507 176.877 151.777 176.877 L 151.777 176.877 L 151.777 176.877 Q 149.953 176.877 148.807 177.797 L 148.807 177.797 L 148.807 177.797 Q 147.66 178.718 147.66 180.124 L 147.66 180.124 L 147.66 180.124 Q 147.66 181.044 148.176 181.662 L 148.176 181.662 L 148.176 181.662 Q 148.692 182.28 149.493 182.672 L 149.493 182.672 L 149.493 182.672 Q 150.294 183.064 151.138 183.303 L 151.138 183.303 L 152.979 183.831 L 152.979 183.831 Q 153.814 184.061 154.649 184.419 L 154.649 184.419 L 154.649 184.419 Q 155.484 184.777 156.179 185.318 L 156.179 185.318 L 156.179 185.318 Q 156.873 185.86 157.295 186.639 L 157.295 186.639 L 157.295 186.639 Q 157.717 187.419 157.717 188.51 L 157.717 188.51 L 157.717 188.51 Q 157.717 189.908 156.993 191.024 L 156.993 191.024 L 156.993 191.024 Q 156.268 192.141 154.913 192.793 L 154.913 192.793 L 154.913 192.793 Q 153.558 193.445 151.666 193.445 L 151.666 193.445 L 151.666 193.445 Q 148.998 193.445 147.405 192.149 L 147.405 192.149 L 147.405 192.149 Q 145.811 190.854 145.666 188.783 L 145.666 188.783 L 147.302 188.783 L 147.302 188.783 Q 147.43 190.334 148.666 191.161 L 148.666 191.161 L 148.666 191.161 Q 149.902 191.988 151.666 191.988 L 151.666 191.988 L 151.666 191.988 Q 152.97 191.988 153.989 191.549 L 153.989 191.549 L 153.989 191.549 Q 155.007 191.11 155.591 190.321 L 155.591 190.321 L 155.591 190.321 Q 156.175 189.533 156.175 188.485 L 156.175 188.485 L 156.175 188.485 Q 156.175 187.147 155.165 186.439 L 155.165 186.439 L 155.165 186.439 Q 154.155 185.732 152.527 185.263 L 152.527 185.263 L 150.439 184.649 L 150.439 184.649 Q 148.385 184.044 147.251 182.958 L 147.251 182.958 L 147.251 182.958 Q 146.118 181.871 146.118 180.192 L 146.118 180.192 L 146.118 180.192 Q 146.118 178.786 146.872 177.716 L 146.872 177.716 L 146.872 177.716 Q 147.626 176.647 148.917 176.046 L 148.917 176.046 L 148.917 176.046 Q 150.209 175.445 151.819 175.445 L 151.819 175.445 L 151.819 175.445 Q 153.447 175.445 154.7 176.046 L 154.7 176.046 L 154.7 176.046 Q 155.953 176.647 156.686 177.686 L 156.686 177.686 L 156.686 177.686 Q 157.419 178.726 157.479 180.056 L 157.479 180.056 L 157.479 180.056 Z  M 162.234 198.26 L 162.234 198.26 L 162.234 198.26 Q 161.783 198.26 161.39 198.179 L 161.39 198.179 L 161.39 198.179 Q 160.998 198.098 160.768 197.988 L 160.768 197.988 L 161.177 196.649 L 161.177 196.649 Q 162.328 197.016 163.125 196.654 L 163.125 196.654 L 163.125 196.654 Q 163.922 196.291 164.459 194.817 L 164.459 194.817 L 165.013 193.274 L 160.197 180.056 L 161.842 180.056 L 165.729 191.144 L 165.848 191.144 L 169.734 180.056 L 171.379 180.056 L 165.763 195.431 L 165.763 195.431 Q 164.723 198.26 162.234 198.26 Z  M 183.132 182.928 L 183.132 182.928 L 181.743 183.32 L 181.743 183.32 Q 181.436 182.434 180.729 181.824 L 180.729 181.824 L 180.729 181.824 Q 180.021 181.215 178.7 181.215 L 178.7 181.215 L 178.7 181.215 Q 177.379 181.215 176.523 181.845 L 176.523 181.845 L 176.523 181.845 Q 175.666 182.476 175.666 183.473 L 175.666 183.473 L 175.666 183.473 Q 175.666 184.326 176.25 184.845 L 176.25 184.845 L 176.25 184.845 Q 176.834 185.365 178.052 185.672 L 178.052 185.672 L 180.03 186.158 L 180.03 186.158 Q 183.319 186.968 183.319 189.61 L 183.319 189.61 L 183.319 189.61 Q 183.319 190.718 182.706 191.578 L 182.706 191.578 L 182.706 191.578 Q 182.092 192.439 180.997 192.929 L 180.997 192.929 L 180.997 192.929 Q 179.902 193.419 178.462 193.419 L 178.462 193.419 L 178.462 193.419 Q 176.535 193.419 175.295 192.554 L 175.295 192.554 L 175.295 192.554 Q 174.055 191.689 173.706 190.053 L 173.706 190.053 L 175.163 189.695 L 175.163 189.695 Q 175.717 192.056 178.436 192.056 L 178.436 192.056 L 178.436 192.056 Q 179.944 192.056 180.848 191.378 L 180.848 191.378 L 180.848 191.378 Q 181.751 190.701 181.751 189.678 L 181.751 189.678 L 181.751 189.678 Q 181.751 188.05 179.621 187.547 L 179.621 187.547 L 177.481 187.036 L 177.481 187.036 Q 175.777 186.627 174.959 185.74 L 174.959 185.74 L 174.959 185.74 Q 174.14 184.854 174.14 183.541 L 174.14 183.541 L 174.14 183.541 Q 174.14 182.459 174.729 181.637 L 174.729 181.637 L 174.729 181.637 Q 175.317 180.814 176.348 180.345 L 176.348 180.345 L 176.348 180.345 Q 177.379 179.877 178.7 179.877 L 178.7 179.877 L 178.7 179.877 Q 180.498 179.877 181.577 180.691 L 181.577 180.691 L 181.577 180.691 Q 182.655 181.505 183.132 182.928 Z  M 189.03 180.056 L 191.8 180.056 L 191.8 181.377 L 189.03 181.377 L 189.03 189.729 L 189.03 189.729 Q 189.03 190.965 189.631 191.412 L 189.631 191.412 L 189.631 191.412 Q 190.231 191.86 191.007 191.86 L 191.007 191.86 L 191.007 191.86 Q 191.305 191.86 191.518 191.821 L 191.518 191.821 L 191.518 191.821 Q 191.731 191.783 191.893 191.74 L 191.893 191.74 L 192.217 193.113 L 192.217 193.113 Q 192.004 193.198 191.676 193.27 L 191.676 193.27 L 191.676 193.27 Q 191.348 193.343 190.871 193.343 L 190.871 193.343 L 190.871 193.343 Q 190.035 193.343 189.26 192.976 L 189.26 192.976 L 189.26 192.976 Q 188.484 192.61 187.994 191.885 L 187.994 191.885 L 187.994 191.885 Q 187.504 191.161 187.504 190.087 L 187.504 190.087 L 187.504 181.377 L 185.552 181.377 L 185.552 180.056 L 187.504 180.056 L 187.504 176.919 L 189.03 176.919 L 189.03 180.056 L 189.03 180.056 Z  M 200.399 193.419 L 200.399 193.419 L 200.399 193.419 Q 198.567 193.419 197.229 192.563 L 197.229 192.563 L 197.229 192.563 Q 195.89 191.706 195.162 190.185 L 195.162 190.185 L 195.162 190.185 Q 194.433 188.664 194.433 186.678 L 194.433 186.678 L 194.433 186.678 Q 194.433 184.692 195.162 183.158 L 195.162 183.158 L 195.162 183.158 Q 195.89 181.624 197.182 180.75 L 197.182 180.75 L 197.182 180.75 Q 198.473 179.877 200.169 179.877 L 200.169 179.877 L 200.169 179.877 Q 201.592 179.877 202.858 180.571 L 202.858 180.571 L 202.858 180.571 Q 204.123 181.266 204.916 182.689 L 204.916 182.689 L 204.916 182.689 Q 205.709 184.113 205.709 186.303 L 205.709 186.303 L 205.709 187.053 L 195.959 187.053 L 195.959 187.053 Q 196.01 189.32 197.203 190.675 L 197.203 190.675 L 197.203 190.675 Q 198.396 192.03 200.399 192.03 L 200.399 192.03 L 200.399 192.03 Q 201.797 192.03 202.683 191.395 L 202.683 191.395 L 202.683 191.395 Q 203.569 190.76 203.944 189.882 L 203.944 189.882 L 205.385 190.351 L 205.385 190.351 Q 204.942 191.587 203.655 192.503 L 203.655 192.503 L 203.655 192.503 Q 202.368 193.419 200.399 193.419 Z  M 195.967 185.715 L 195.967 185.715 L 204.158 185.715 L 204.158 185.715 Q 204.158 184.453 203.65 183.443 L 203.65 183.443 L 203.65 183.443 Q 203.143 182.434 202.244 181.845 L 202.244 181.845 L 202.244 181.845 Q 201.345 181.257 200.169 181.257 L 200.169 181.257 L 200.169 181.257 Q 198.976 181.257 198.06 181.863 L 198.06 181.863 L 198.06 181.863 Q 197.143 182.468 196.598 183.482 L 196.598 183.482 L 196.598 183.482 Q 196.052 184.496 195.967 185.715 Z  M 210.558 193.147 L 209.041 193.147 L 209.041 180.056 L 210.515 180.056 L 210.515 182.067 L 210.652 182.067 L 210.652 182.067 Q 211.044 181.053 211.96 180.469 L 211.96 180.469 L 211.96 180.469 Q 212.876 179.885 214.163 179.885 L 214.163 179.885 L 214.163 179.885 Q 215.518 179.885 216.392 180.516 L 216.392 180.516 L 216.392 180.516 Q 217.265 181.147 217.7 182.263 L 217.7 182.263 L 217.811 182.263 L 217.811 182.263 Q 218.254 181.172 219.256 180.529 L 219.256 180.529 L 219.256 180.529 Q 220.257 179.885 221.689 179.885 L 221.689 179.885 L 221.689 179.885 Q 223.513 179.885 224.569 181.032 L 224.569 181.032 L 224.569 181.032 Q 225.626 182.178 225.626 184.377 L 225.626 184.377 L 225.626 193.147 L 224.109 193.147 L 224.109 184.377 L 224.109 184.377 Q 224.109 182.826 223.317 182.05 L 223.317 182.05 L 223.317 182.05 Q 222.524 181.274 221.229 181.274 L 221.229 181.274 L 221.229 181.274 Q 219.737 181.274 218.923 182.195 L 218.923 182.195 L 218.923 182.195 Q 218.109 183.115 218.109 184.53 L 218.109 184.53 L 218.109 193.147 L 216.558 193.147 L 216.558 184.24 L 216.558 184.24 Q 216.558 182.911 215.817 182.093 L 215.817 182.093 L 215.817 182.093 Q 215.075 181.274 213.729 181.274 L 213.729 181.274 L 213.729 181.274 Q 212.365 181.274 211.462 182.255 L 211.462 182.255 L 211.462 182.255 Q 210.558 183.235 210.558 184.76 L 210.558 184.76 L 210.558 193.147 L 210.558 193.147 Z  M 124.947 164.442 L 124.947 164.442 L 119.834 164.442 L 119.834 146.988 L 125.254 146.988 L 125.254 146.988 Q 127.751 146.988 129.528 148.027 L 129.528 148.027 L 129.528 148.027 Q 131.305 149.067 132.251 151.01 L 132.251 151.01 L 132.251 151.01 Q 133.197 152.953 133.197 155.672 L 133.197 155.672 L 133.197 155.672 Q 133.189 159.789 131.037 162.115 L 131.037 162.115 L 131.037 162.115 Q 128.885 164.442 124.947 164.442 Z  M 121.427 148.419 L 121.427 163.01 L 124.854 163.01 L 124.854 163.01 Q 128.229 163.01 129.942 161.05 L 129.942 161.05 L 129.942 161.05 Q 131.655 159.09 131.655 155.672 L 131.655 155.672 L 131.655 155.672 Q 131.646 152.28 129.993 150.35 L 129.993 150.35 L 129.993 150.35 Q 128.339 148.419 125.16 148.419 L 125.16 148.419 L 121.427 148.419 L 121.427 148.419 Z  M 142.027 164.715 L 142.027 164.715 L 142.027 164.715 Q 140.194 164.715 138.856 163.858 L 138.856 163.858 L 138.856 163.858 Q 137.518 163.002 136.79 161.48 L 136.79 161.48 L 136.79 161.48 Q 136.061 159.959 136.061 157.973 L 136.061 157.973 L 136.061 157.973 Q 136.061 155.988 136.79 154.453 L 136.79 154.453 L 136.79 154.453 Q 137.518 152.919 138.81 152.046 L 138.81 152.046 L 138.81 152.046 Q 140.101 151.172 141.797 151.172 L 141.797 151.172 L 141.797 151.172 Q 143.22 151.172 144.486 151.867 L 144.486 151.867 L 144.486 151.867 Q 145.751 152.561 146.544 153.985 L 146.544 153.985 L 146.544 153.985 Q 147.337 155.408 147.337 157.598 L 147.337 157.598 L 147.337 158.348 L 137.587 158.348 L 137.587 158.348 Q 137.638 160.615 138.831 161.97 L 138.831 161.97 L 138.831 161.97 Q 140.024 163.326 142.027 163.326 L 142.027 163.326 L 142.027 163.326 Q 143.425 163.326 144.311 162.691 L 144.311 162.691 L 144.311 162.691 Q 145.197 162.056 145.572 161.178 L 145.572 161.178 L 147.013 161.647 L 147.013 161.647 Q 146.569 162.882 145.283 163.799 L 145.283 163.799 L 145.283 163.799 Q 143.996 164.715 142.027 164.715 Z  M 137.595 157.01 L 137.595 157.01 L 145.785 157.01 L 145.785 157.01 Q 145.785 155.749 145.278 154.739 L 145.278 154.739 L 145.278 154.739 Q 144.771 153.729 143.872 153.141 L 143.872 153.141 L 143.872 153.141 Q 142.973 152.553 141.797 152.553 L 141.797 152.553 L 141.797 152.553 Q 140.604 152.553 139.687 153.158 L 139.687 153.158 L 139.687 153.158 Q 138.771 153.763 138.226 154.777 L 138.226 154.777 L 138.226 154.777 Q 137.68 155.791 137.595 157.01 Z  M 159.464 154.223 L 159.464 154.223 L 158.075 154.615 L 158.075 154.615 Q 157.768 153.729 157.061 153.12 L 157.061 153.12 L 157.061 153.12 Q 156.354 152.51 155.033 152.51 L 155.033 152.51 L 155.033 152.51 Q 153.712 152.51 152.855 153.141 L 152.855 153.141 L 152.855 153.141 Q 151.998 153.772 151.998 154.769 L 151.998 154.769 L 151.998 154.769 Q 151.998 155.621 152.582 156.141 L 152.582 156.141 L 152.582 156.141 Q 153.166 156.661 154.385 156.968 L 154.385 156.968 L 156.362 157.453 L 156.362 157.453 Q 159.652 158.263 159.652 160.905 L 159.652 160.905 L 159.652 160.905 Q 159.652 162.013 159.038 162.874 L 159.038 162.874 L 159.038 162.874 Q 158.425 163.735 157.329 164.225 L 157.329 164.225 L 157.329 164.225 Q 156.234 164.715 154.794 164.715 L 154.794 164.715 L 154.794 164.715 Q 152.868 164.715 151.628 163.85 L 151.628 163.85 L 151.628 163.85 Q 150.388 162.985 150.038 161.348 L 150.038 161.348 L 151.496 160.99 L 151.496 160.99 Q 152.05 163.351 154.768 163.351 L 154.768 163.351 L 154.768 163.351 Q 156.277 163.351 157.18 162.674 L 157.18 162.674 L 157.18 162.674 Q 158.084 161.996 158.084 160.973 L 158.084 160.973 L 158.084 160.973 Q 158.084 159.345 155.953 158.843 L 155.953 158.843 L 153.814 158.331 L 153.814 158.331 Q 152.109 157.922 151.291 157.036 L 151.291 157.036 L 151.291 157.036 Q 150.473 156.149 150.473 154.837 L 150.473 154.837 L 150.473 154.837 Q 150.473 153.755 151.061 152.932 L 151.061 152.932 L 151.061 152.932 Q 151.649 152.11 152.68 151.641 L 152.68 151.641 L 152.68 151.641 Q 153.712 151.172 155.033 151.172 L 155.033 151.172 L 155.033 151.172 Q 156.831 151.172 157.909 151.986 L 157.909 151.986 L 157.909 151.986 Q 158.987 152.8 159.464 154.223 Z  M 164.518 164.442 L 162.993 164.442 L 162.993 151.351 L 164.518 151.351 L 164.518 164.442 L 164.518 164.442 Z  M 163.768 149.101 L 163.768 149.101 L 163.768 149.101 Q 163.3 149.101 162.967 148.777 L 162.967 148.777 L 162.967 148.777 Q 162.635 148.453 162.635 148.01 L 162.635 148.01 L 162.635 148.01 Q 162.635 147.559 162.967 147.239 L 162.967 147.239 L 162.967 147.239 Q 163.3 146.919 163.768 146.919 L 163.768 146.919 L 163.768 146.919 Q 164.237 146.919 164.574 147.239 L 164.574 147.239 L 164.574 147.239 Q 164.91 147.559 164.91 148.01 L 164.91 148.01 L 164.91 148.01 Q 164.91 148.453 164.574 148.777 L 164.574 148.777 L 164.574 148.777 Q 164.237 149.101 163.768 149.101 Z  M 173.535 169.624 L 173.535 169.624 L 173.535 169.624 Q 171.533 169.624 170.267 168.874 L 170.267 168.874 L 170.267 168.874 Q 169.001 168.124 168.422 166.999 L 168.422 166.999 L 169.666 166.181 L 169.666 166.181 Q 169.947 166.675 170.42 167.157 L 170.42 167.157 L 170.42 167.157 Q 170.893 167.638 171.656 167.949 L 171.656 167.949 L 171.656 167.949 Q 172.419 168.26 173.535 168.26 L 173.535 168.26 L 173.535 168.26 Q 175.274 168.26 176.344 167.387 L 176.344 167.387 L 176.344 167.387 Q 177.413 166.513 177.413 164.689 L 177.413 164.689 L 177.413 161.74 L 177.277 161.74 L 177.277 161.74 Q 177.021 162.337 176.527 162.929 L 176.527 162.929 L 176.527 162.929 Q 176.033 163.522 175.231 163.914 L 175.231 163.914 L 175.231 163.914 Q 174.43 164.306 173.254 164.306 L 173.254 164.306 L 173.254 164.306 Q 171.686 164.306 170.471 163.53 L 170.471 163.53 L 170.471 163.53 Q 169.257 162.755 168.562 161.31 L 168.562 161.31 L 168.562 161.31 Q 167.868 159.865 167.868 157.863 L 167.868 157.863 L 167.868 157.863 Q 167.868 155.868 168.545 154.364 L 168.545 154.364 L 168.545 154.364 Q 169.223 152.86 170.442 152.016 L 170.442 152.016 L 170.442 152.016 Q 171.66 151.172 173.28 151.172 L 173.28 151.172 L 173.28 151.172 Q 174.481 151.172 175.274 151.598 L 175.274 151.598 L 175.274 151.598 Q 176.067 152.024 176.552 152.642 L 176.552 152.642 L 176.552 152.642 Q 177.038 153.26 177.302 153.848 L 177.302 153.848 L 177.456 153.848 L 177.456 151.351 L 178.939 151.351 L 178.939 164.783 L 178.939 164.783 Q 178.939 166.445 178.236 167.514 L 178.236 167.514 L 178.236 167.514 Q 177.533 168.584 176.31 169.104 L 176.31 169.104 L 176.31 169.104 Q 175.087 169.624 173.535 169.624 Z  M 173.433 162.916 L 173.433 162.916 L 173.433 162.916 Q 175.325 162.916 176.382 161.561 L 176.382 161.561 L 176.382 161.561 Q 177.439 160.206 177.439 157.837 L 177.439 157.837 L 177.439 157.837 Q 177.439 156.303 176.97 155.11 L 176.97 155.11 L 176.97 155.11 Q 176.501 153.916 175.611 153.235 L 175.611 153.235 L 175.611 153.235 Q 174.72 152.553 173.433 152.553 L 173.433 152.553 L 173.433 152.553 Q 172.121 152.553 171.221 153.26 L 171.221 153.26 L 171.221 153.26 Q 170.322 153.968 169.858 155.165 L 169.858 155.165 L 169.858 155.165 Q 169.393 156.363 169.393 157.837 L 169.393 157.837 L 169.393 157.837 Q 169.393 160.087 170.437 161.502 L 170.437 161.502 L 170.437 161.502 Q 171.481 162.916 173.433 162.916 Z  M 184.479 156.26 L 184.479 156.26 L 184.479 164.442 L 182.962 164.442 L 182.962 151.351 L 184.436 151.351 L 184.436 153.405 L 184.572 153.405 L 184.572 153.405 Q 185.033 152.399 186.008 151.79 L 186.008 151.79 L 186.008 151.79 Q 186.984 151.181 188.425 151.181 L 188.425 151.181 L 188.425 151.181 Q 190.41 151.181 191.638 152.408 L 191.638 152.408 L 191.638 152.408 Q 192.865 153.635 192.865 155.962 L 192.865 155.962 L 192.865 164.442 L 191.348 164.442 L 191.348 156.056 L 191.348 156.056 Q 191.348 154.453 190.449 153.512 L 190.449 153.512 L 190.449 153.512 Q 189.55 152.57 188.041 152.57 L 188.041 152.57 L 188.041 152.57 Q 186.498 152.57 185.489 153.559 L 185.489 153.559 L 185.489 153.559 Q 184.479 154.547 184.479 156.26 Z  M 79.129 152.442 L 79.129 152.442 L 77.527 152.442 L 77.527 152.442 Q 77.288 151.249 76.551 150.299 L 76.551 150.299 L 76.551 150.299 Q 75.814 149.348 74.702 148.799 L 74.702 148.799 L 74.702 148.799 Q 73.589 148.249 72.217 148.249 L 72.217 148.249 L 72.217 148.249 Q 70.564 148.249 69.2 149.11 L 69.2 149.11 L 69.2 149.11 Q 67.837 149.97 67.027 151.632 L 67.027 151.632 L 67.027 151.632 Q 66.217 153.294 66.217 155.715 L 66.217 155.715 L 66.217 155.715 Q 66.217 158.135 67.027 159.801 L 67.027 159.801 L 67.027 159.801 Q 67.837 161.468 69.2 162.324 L 69.2 162.324 L 69.2 162.324 Q 70.564 163.181 72.217 163.181 L 72.217 163.181 L 72.217 163.181 Q 73.589 163.181 74.702 162.631 L 74.702 162.631 L 74.702 162.631 Q 75.814 162.081 76.551 161.131 L 76.551 161.131 L 76.551 161.131 Q 77.288 160.181 77.527 158.988 L 77.527 158.988 L 79.129 158.988 L 79.129 158.988 Q 78.848 160.59 77.915 161.881 L 77.915 161.881 L 77.915 161.881 Q 76.981 163.172 75.528 163.926 L 75.528 163.926 L 75.528 163.926 Q 74.075 164.681 72.217 164.681 L 72.217 164.681 L 72.217 164.681 Q 70.018 164.681 68.314 163.577 L 68.314 163.577 L 68.314 163.577 Q 66.609 162.473 65.642 160.458 L 65.642 160.458 L 65.642 160.458 Q 64.675 158.442 64.675 155.715 L 64.675 155.715 L 64.675 155.715 Q 64.675 152.979 65.642 150.968 L 65.642 150.968 L 65.642 150.968 Q 66.609 148.956 68.314 147.853 L 68.314 147.853 L 68.314 147.853 Q 70.018 146.749 72.217 146.749 L 72.217 146.749 L 72.217 146.749 Q 74.075 146.749 75.528 147.503 L 75.528 147.503 L 75.528 147.503 Q 76.981 148.257 77.915 149.544 L 77.915 149.544 L 77.915 149.544 Q 78.848 150.831 79.129 152.442 Z  M 93.899 151.351 L 92.356 151.351 L 92.356 151.351 Q 92.212 149.894 91.069 149.033 L 91.069 149.033 L 91.069 149.033 Q 89.927 148.172 88.197 148.172 L 88.197 148.172 L 88.197 148.172 Q 86.373 148.172 85.227 149.093 L 85.227 149.093 L 85.227 149.093 Q 84.081 150.013 84.081 151.419 L 84.081 151.419 L 84.081 151.419 Q 84.081 152.34 84.596 152.958 L 84.596 152.958 L 84.596 152.958 Q 85.112 153.576 85.913 153.968 L 85.913 153.968 L 85.913 153.968 Q 86.714 154.36 87.558 154.598 L 87.558 154.598 L 89.399 155.127 L 89.399 155.127 Q 90.234 155.357 91.069 155.715 L 91.069 155.715 L 91.069 155.715 Q 91.905 156.073 92.599 156.614 L 92.599 156.614 L 92.599 156.614 Q 93.294 157.155 93.716 157.935 L 93.716 157.935 L 93.716 157.935 Q 94.138 158.715 94.138 159.806 L 94.138 159.806 L 94.138 159.806 Q 94.138 161.203 93.413 162.32 L 93.413 162.32 L 93.413 162.32 Q 92.689 163.436 91.334 164.088 L 91.334 164.088 L 91.334 164.088 Q 89.979 164.74 88.087 164.74 L 88.087 164.74 L 88.087 164.74 Q 85.419 164.74 83.825 163.445 L 83.825 163.445 L 83.825 163.445 Q 82.231 162.149 82.087 160.078 L 82.087 160.078 L 83.723 160.078 L 83.723 160.078 Q 83.851 161.63 85.087 162.456 L 85.087 162.456 L 85.087 162.456 Q 86.322 163.283 88.087 163.283 L 88.087 163.283 L 88.087 163.283 Q 89.39 163.283 90.409 162.844 L 90.409 162.844 L 90.409 162.844 Q 91.427 162.405 92.011 161.617 L 92.011 161.617 L 92.011 161.617 Q 92.595 160.828 92.595 159.78 L 92.595 159.78 L 92.595 159.78 Q 92.595 158.442 91.585 157.735 L 91.585 157.735 L 91.585 157.735 Q 90.575 157.027 88.947 156.559 L 88.947 156.559 L 86.859 155.945 L 86.859 155.945 Q 84.805 155.34 83.672 154.253 L 83.672 154.253 L 83.672 154.253 Q 82.538 153.166 82.538 151.488 L 82.538 151.488 L 82.538 151.488 Q 82.538 150.081 83.292 149.012 L 83.292 149.012 L 83.292 149.012 Q 84.047 147.942 85.338 147.341 L 85.338 147.341 L 85.338 147.341 Q 86.629 146.74 88.24 146.74 L 88.24 146.74 L 88.24 146.74 Q 89.868 146.74 91.121 147.341 L 91.121 147.341 L 91.121 147.341 Q 92.373 147.942 93.106 148.982 L 93.106 148.982 L 93.106 148.982 Q 93.839 150.022 93.899 151.351 L 93.899 151.351 L 93.899 151.351 Z  M 109.001 151.351 L 107.459 151.351 L 107.459 151.351 Q 107.314 149.894 106.172 149.033 L 106.172 149.033 L 106.172 149.033 Q 105.03 148.172 103.3 148.172 L 103.3 148.172 L 103.3 148.172 Q 101.476 148.172 100.329 149.093 L 100.329 149.093 L 100.329 149.093 Q 99.183 150.013 99.183 151.419 L 99.183 151.419 L 99.183 151.419 Q 99.183 152.34 99.699 152.958 L 99.699 152.958 L 99.699 152.958 Q 100.214 153.576 101.015 153.968 L 101.015 153.968 L 101.015 153.968 Q 101.817 154.36 102.66 154.598 L 102.66 154.598 L 104.501 155.127 L 104.501 155.127 Q 105.337 155.357 106.172 155.715 L 106.172 155.715 L 106.172 155.715 Q 107.007 156.073 107.702 156.614 L 107.702 156.614 L 107.702 156.614 Q 108.396 157.155 108.818 157.935 L 108.818 157.935 L 108.818 157.935 Q 109.24 158.715 109.24 159.806 L 109.24 159.806 L 109.24 159.806 Q 109.24 161.203 108.515 162.32 L 108.515 162.32 L 108.515 162.32 Q 107.791 163.436 106.436 164.088 L 106.436 164.088 L 106.436 164.088 Q 105.081 164.74 103.189 164.74 L 103.189 164.74 L 103.189 164.74 Q 100.521 164.74 98.927 163.445 L 98.927 163.445 L 98.927 163.445 Q 97.334 162.149 97.189 160.078 L 97.189 160.078 L 98.825 160.078 L 98.825 160.078 Q 98.953 161.63 100.189 162.456 L 100.189 162.456 L 100.189 162.456 Q 101.425 163.283 103.189 163.283 L 103.189 163.283 L 103.189 163.283 Q 104.493 163.283 105.511 162.844 L 105.511 162.844 L 105.511 162.844 Q 106.53 162.405 107.114 161.617 L 107.114 161.617 L 107.114 161.617 Q 107.697 160.828 107.697 159.78 L 107.697 159.78 L 107.697 159.78 Q 107.697 158.442 106.687 157.735 L 106.687 157.735 L 106.687 157.735 Q 105.677 157.027 104.05 156.559 L 104.05 156.559 L 101.962 155.945 L 101.962 155.945 Q 99.908 155.34 98.774 154.253 L 98.774 154.253 L 98.774 154.253 Q 97.64 153.166 97.64 151.488 L 97.64 151.488 L 97.64 151.488 Q 97.64 150.081 98.395 149.012 L 98.395 149.012 L 98.395 149.012 Q 99.149 147.942 100.44 147.341 L 100.44 147.341 L 100.44 147.341 Q 101.731 146.74 103.342 146.74 L 103.342 146.74 L 103.342 146.74 Q 104.97 146.74 106.223 147.341 L 106.223 147.341 L 106.223 147.341 Q 107.476 147.942 108.209 148.982 L 108.209 148.982 L 108.209 148.982 Q 108.942 150.022 109.001 151.351 L 109.001 151.351 L 109.001 151.351 Z  M 159.618 128.619 L 157.675 128.619 L 157.675 111.165 L 159.686 111.165 L 159.686 117.608 L 159.856 117.608 L 159.856 117.608 Q 160.078 117.267 160.474 116.734 L 160.474 116.734 L 160.474 116.734 Q 160.871 116.202 161.616 115.78 L 161.616 115.78 L 161.616 115.78 Q 162.362 115.358 163.64 115.358 L 163.64 115.358 L 163.64 115.358 Q 165.294 115.358 166.555 116.185 L 166.555 116.185 L 166.555 116.185 Q 167.817 117.011 168.524 118.528 L 168.524 118.528 L 168.524 118.528 Q 169.231 120.045 169.231 122.108 L 169.231 122.108 L 169.231 122.108 Q 169.231 124.188 168.524 125.709 L 168.524 125.709 L 168.524 125.709 Q 167.817 127.23 166.564 128.061 L 166.564 128.061 L 166.564 128.061 Q 165.311 128.892 163.675 128.892 L 163.675 128.892 L 163.675 128.892 Q 162.413 128.892 161.655 128.47 L 161.655 128.47 L 161.655 128.47 Q 160.896 128.048 160.487 127.507 L 160.487 127.507 L 160.487 127.507 Q 160.078 126.966 159.856 126.608 L 159.856 126.608 L 159.618 126.608 L 159.618 128.619 L 159.618 128.619 Z  M 159.652 122.074 L 159.652 122.074 L 159.652 122.074 Q 159.652 124.298 160.619 125.692 L 160.619 125.692 L 160.619 125.692 Q 161.587 127.085 163.402 127.085 L 163.402 127.085 L 163.402 127.085 Q 164.663 127.085 165.511 126.416 L 165.511 126.416 L 165.511 126.416 Q 166.359 125.747 166.79 124.609 L 166.79 124.609 L 166.79 124.609 Q 167.22 123.472 167.22 122.074 L 167.22 122.074 L 167.22 122.074 Q 167.22 120.693 166.798 119.581 L 166.798 119.581 L 166.798 119.581 Q 166.376 118.469 165.528 117.817 L 165.528 117.817 L 165.528 117.817 Q 164.68 117.165 163.402 117.165 L 163.402 117.165 L 163.402 117.165 Q 161.561 117.165 160.606 118.52 L 160.606 118.52 L 160.606 118.52 Q 159.652 119.875 159.652 122.074 Z  M 177.788 128.892 L 177.788 128.892 L 177.788 128.892 Q 175.896 128.892 174.528 128.053 L 174.528 128.053 L 174.528 128.053 Q 173.16 127.213 172.423 125.7 L 172.423 125.7 L 172.423 125.7 Q 171.686 124.188 171.686 122.176 L 171.686 122.176 L 171.686 122.176 Q 171.686 120.165 172.423 118.626 L 172.423 118.626 L 172.423 118.626 Q 173.16 117.088 174.486 116.223 L 174.486 116.223 L 174.486 116.223 Q 175.811 115.358 177.584 115.358 L 177.584 115.358 L 177.584 115.358 Q 178.606 115.358 179.604 115.699 L 179.604 115.699 L 179.604 115.699 Q 180.601 116.04 181.419 116.803 L 181.419 116.803 L 181.419 116.803 Q 182.237 117.565 182.723 118.818 L 182.723 118.818 L 182.723 118.818 Q 183.209 120.071 183.209 121.903 L 183.209 121.903 L 183.209 122.756 L 173.706 122.756 L 173.706 122.756 Q 173.774 124.852 174.895 125.969 L 174.895 125.969 L 174.895 125.969 Q 176.015 127.085 177.788 127.085 L 177.788 127.085 L 177.788 127.085 Q 178.973 127.085 179.825 126.574 L 179.825 126.574 L 179.825 126.574 Q 180.677 126.063 181.061 125.04 L 181.061 125.04 L 183.004 125.585 L 183.004 125.585 Q 182.544 127.068 181.163 127.98 L 181.163 127.98 L 181.163 127.98 Q 179.783 128.892 177.788 128.892 Z  M 173.706 121.017 L 173.706 121.017 L 181.163 121.017 L 181.163 121.017 Q 181.163 119.355 180.192 118.26 L 180.192 118.26 L 180.192 118.26 Q 179.22 117.165 177.584 117.165 L 177.584 117.165 L 177.584 117.165 Q 176.433 117.165 175.589 117.702 L 175.589 117.702 L 175.589 117.702 Q 174.746 118.239 174.26 119.121 L 174.26 119.121 L 174.26 119.121 Q 173.774 120.003 173.706 121.017 Z  M 186.277 111.165 L 188.288 111.165 L 188.288 128.619 L 186.277 128.619 L 186.277 111.165 L 186.277 111.165 Z  M 197.288 128.892 L 197.288 128.892 L 197.288 128.892 Q 195.515 128.892 194.182 128.048 L 194.182 128.048 L 194.182 128.048 Q 192.848 127.205 192.102 125.688 L 192.102 125.688 L 192.102 125.688 Q 191.356 124.17 191.356 122.142 L 191.356 122.142 L 191.356 122.142 Q 191.356 120.097 192.102 118.571 L 192.102 118.571 L 192.102 118.571 Q 192.848 117.045 194.182 116.202 L 194.182 116.202 L 194.182 116.202 Q 195.515 115.358 197.288 115.358 L 197.288 115.358 L 197.288 115.358 Q 199.061 115.358 200.395 116.202 L 200.395 116.202 L 200.395 116.202 Q 201.729 117.045 202.474 118.571 L 202.474 118.571 L 202.474 118.571 Q 203.22 120.097 203.22 122.142 L 203.22 122.142 L 203.22 122.142 Q 203.22 124.17 202.474 125.688 L 202.474 125.688 L 202.474 125.688 Q 201.729 127.205 200.395 128.048 L 200.395 128.048 L 200.395 128.048 Q 199.061 128.892 197.288 128.892 Z  M 197.288 127.085 L 197.288 127.085 L 197.288 127.085 Q 198.635 127.085 199.504 126.395 L 199.504 126.395 L 199.504 126.395 Q 200.373 125.705 200.791 124.58 L 200.791 124.58 L 200.791 124.58 Q 201.209 123.455 201.209 122.142 L 201.209 122.142 L 201.209 122.142 Q 201.209 120.83 200.791 119.696 L 200.791 119.696 L 200.791 119.696 Q 200.373 118.563 199.504 117.864 L 199.504 117.864 L 199.504 117.864 Q 198.635 117.165 197.288 117.165 L 197.288 117.165 L 197.288 117.165 Q 195.942 117.165 195.072 117.864 L 195.072 117.864 L 195.072 117.864 Q 194.203 118.563 193.785 119.696 L 193.785 119.696 L 193.785 119.696 Q 193.368 120.83 193.368 122.142 L 193.368 122.142 L 193.368 122.142 Q 193.368 123.455 193.785 124.58 L 193.785 124.58 L 193.785 124.58 Q 194.203 125.705 195.072 126.395 L 195.072 126.395 L 195.072 126.395 Q 195.942 127.085 197.288 127.085 Z  M 210.788 128.619 L 208.811 128.619 L 204.822 115.528 L 206.936 115.528 L 209.765 125.551 L 209.902 125.551 L 212.697 115.528 L 214.845 115.528 L 217.606 125.517 L 217.743 125.517 L 220.572 115.528 L 222.686 115.528 L 218.697 128.619 L 216.72 128.619 L 213.856 118.563 L 213.652 118.563 L 210.788 128.619 L 210.788 128.619 Z  M 67.811 120.949 L 67.811 120.949 L 67.811 128.619 L 64.726 128.619 L 64.726 111.165 L 67.743 111.165 L 67.743 117.753 L 67.896 117.753 L 67.896 117.753 Q 68.348 116.636 69.315 115.997 L 69.315 115.997 L 69.315 115.997 Q 70.283 115.358 71.791 115.358 L 71.791 115.358 L 71.791 115.358 Q 73.828 115.358 75.064 116.636 L 75.064 116.636 L 75.064 116.636 Q 76.3 117.915 76.3 120.284 L 76.3 120.284 L 76.3 128.619 L 73.214 128.619 L 73.214 120.761 L 73.214 120.761 Q 73.214 119.44 72.537 118.703 L 72.537 118.703 L 72.537 118.703 Q 71.859 117.966 70.64 117.966 L 70.64 117.966 L 70.64 117.966 Q 69.405 117.966 68.608 118.746 L 68.608 118.746 L 68.608 118.746 Q 67.811 119.526 67.811 120.949 Z  M 80.765 133.716 L 80.765 133.716 L 80.765 133.716 Q 80.092 133.716 79.589 133.597 L 79.589 133.597 L 79.589 133.597 Q 79.087 133.477 78.822 133.366 L 78.822 133.366 L 79.538 130.895 L 79.538 130.895 Q 80.552 131.185 81.239 130.997 L 81.239 130.997 L 81.239 130.997 Q 81.925 130.81 82.359 129.727 L 82.359 129.727 L 82.666 128.892 L 77.919 115.528 L 81.192 115.528 L 84.209 125.415 L 84.345 125.415 L 87.371 115.528 L 90.652 115.528 L 85.368 130.324 L 85.368 130.324 Q 84.822 131.866 83.689 132.791 L 83.689 132.791 L 83.689 132.791 Q 82.555 133.716 80.765 133.716 Z  M 95.868 133.528 L 92.783 133.528 L 92.783 115.528 L 95.817 115.528 L 95.817 117.693 L 95.996 117.693 L 95.996 117.693 Q 96.234 117.216 96.665 116.675 L 96.665 116.675 L 96.665 116.675 Q 97.095 116.134 97.841 115.746 L 97.841 115.746 L 97.841 115.746 Q 98.587 115.358 99.737 115.358 L 99.737 115.358 L 99.737 115.358 Q 101.254 115.358 102.477 116.134 L 102.477 116.134 L 102.477 116.134 Q 103.7 116.909 104.42 118.409 L 104.42 118.409 L 104.42 118.409 Q 105.14 119.909 105.14 122.091 L 105.14 122.091 L 105.14 122.091 Q 105.14 124.247 104.433 125.756 L 104.433 125.756 L 104.433 125.756 Q 103.726 127.264 102.507 128.057 L 102.507 128.057 L 102.507 128.057 Q 101.288 128.849 99.746 128.849 L 99.746 128.849 L 99.746 128.849 Q 98.621 128.849 97.879 128.474 L 97.879 128.474 L 97.879 128.474 Q 97.138 128.099 96.69 127.567 L 96.69 127.567 L 96.69 127.567 Q 96.243 127.034 95.996 126.557 L 95.996 126.557 L 95.868 126.557 L 95.868 133.528 L 95.868 133.528 Z  M 95.808 122.074 L 95.808 122.074 L 95.808 122.074 Q 95.808 123.974 96.609 125.146 L 96.609 125.146 L 96.609 125.146 Q 97.41 126.318 98.885 126.318 L 98.885 126.318 L 98.885 126.318 Q 100.41 126.318 101.203 125.116 L 101.203 125.116 L 101.203 125.116 Q 101.996 123.915 101.996 122.074 L 101.996 122.074 L 101.996 122.074 Q 101.996 120.241 101.212 119.065 L 101.212 119.065 L 101.212 119.065 Q 100.427 117.889 98.885 117.889 L 98.885 117.889 L 98.885 117.889 Q 97.393 117.889 96.601 119.027 L 96.601 119.027 L 96.601 119.027 Q 95.808 120.165 95.808 122.074 Z  M 110.859 120.949 L 110.859 120.949 L 110.859 128.619 L 107.774 128.619 L 107.774 111.165 L 110.791 111.165 L 110.791 117.753 L 110.944 117.753 L 110.944 117.753 Q 111.396 116.636 112.364 115.997 L 112.364 115.997 L 112.364 115.997 Q 113.331 115.358 114.839 115.358 L 114.839 115.358 L 114.839 115.358 Q 116.876 115.358 118.112 116.636 L 118.112 116.636 L 118.112 116.636 Q 119.348 117.915 119.348 120.284 L 119.348 120.284 L 119.348 128.619 L 116.263 128.619 L 116.263 120.761 L 116.263 120.761 Q 116.263 119.44 115.585 118.703 L 115.585 118.703 L 115.585 118.703 Q 114.908 117.966 113.689 117.966 L 113.689 117.966 L 113.689 117.966 Q 112.453 117.966 111.656 118.746 L 111.656 118.746 L 111.656 118.746 Q 110.859 119.526 110.859 120.949 Z  M 128.28 128.875 L 128.28 128.875 L 128.28 128.875 Q 126.311 128.875 124.883 128.048 L 124.883 128.048 L 124.883 128.048 Q 123.456 127.222 122.689 125.713 L 122.689 125.713 L 122.689 125.713 Q 121.922 124.205 121.922 122.151 L 121.922 122.151 L 121.922 122.151 Q 121.922 120.131 122.689 118.601 L 122.689 118.601 L 122.689 118.601 Q 123.456 117.071 124.849 116.214 L 124.849 116.214 L 124.849 116.214 Q 126.243 115.358 128.118 115.358 L 128.118 115.358 L 128.118 115.358 Q 129.729 115.358 131.092 116.053 L 131.092 116.053 L 131.092 116.053 Q 132.456 116.747 133.278 118.209 L 133.278 118.209 L 133.278 118.209 Q 134.101 119.67 134.101 121.972 L 134.101 121.972 L 134.101 122.918 L 124.981 122.918 L 124.981 122.918 Q 125.007 124.597 125.915 125.534 L 125.915 125.534 L 125.915 125.534 Q 126.822 126.472 128.322 126.472 L 128.322 126.472 L 128.322 126.472 Q 129.319 126.472 130.048 126.041 L 130.048 126.041 L 130.048 126.041 Q 130.777 125.611 131.092 124.784 L 131.092 124.784 L 133.973 125.108 L 133.973 125.108 Q 133.564 126.813 132.068 127.844 L 132.068 127.844 L 132.068 127.844 Q 130.572 128.875 128.28 128.875 Z  M 124.99 120.838 L 124.99 120.838 L 131.143 120.838 L 131.143 120.838 Q 131.135 119.5 130.312 118.631 L 130.312 118.631 L 130.312 118.631 Q 129.49 117.761 128.16 117.761 L 128.16 117.761 L 128.16 117.761 Q 126.78 117.761 125.919 118.673 L 125.919 118.673 L 125.919 118.673 Q 125.058 119.585 124.99 120.838 Z  M 144.984 115.528 L 148.265 115.528 L 143.604 128.619 L 140.194 128.619 L 135.533 115.528 L 138.822 115.528 L 141.831 125.253 L 141.967 125.253 L 144.984 115.528 L 144.984 115.528 Z " fill="rgb(255,255,255)"/></svg>